<?xml version="1.0" encoding="UTF-8" standalone="no"?>
<!-- Created with Inkscape (http://www.inkscape.org/) -->

<svg
   version="1.1"
   id="svg1"
   width="318.66666"
   height="290.66666"
   viewBox="0 0 318.66666 290.66666"
   sodipodi:docname="Drop_sketch_Akbari.svg"
   inkscape:version="1.4.2 (ebf0e94, 2025-05-08)"
   xmlns:inkscape="http://www.inkscape.org/namespaces/inkscape"
   xmlns:sodipodi="http://sodipodi.sourceforge.net/DTD/sodipodi-0.dtd"
   xmlns="http://www.w3.org/2000/svg"
   xmlns:svg="http://www.w3.org/2000/svg">
  <defs
     id="defs1" />
  <sodipodi:namedview
     id="namedview1"
     pagecolor="#ffffff"
     bordercolor="#000000"
     borderopacity="0.25"
     inkscape:showpageshadow="2"
     inkscape:pageopacity="0.0"
     inkscape:pagecheckerboard="0"
     inkscape:deskcolor="#d1d1d1"
     inkscape:zoom="2.838969"
     inkscape:cx="181.05164"
     inkscape:cy="123.46031"
     inkscape:window-width="3440"
     inkscape:window-height="1369"
     inkscape:window-x="-8"
     inkscape:window-y="-8"
     inkscape:window-maximized="1"
     inkscape:current-layer="g1">
    <inkscape:page
       x="0"
       y="0"
       inkscape:label="1"
       id="page1"
       width="318.66666"
       height="290.66666"
       margin="0"
       bleed="0" />
  </sodipodi:namedview>
  <g
     id="g1"
     inkscape:groupmode="layer"
     inkscape:label="1">
    <path
       id="path1"
       d="M 1221.68,1011.8 14.0586,247.621"
       style="fill:none;stroke:#000000;stroke-width:3.46649;stroke-linecap:butt;stroke-linejoin:miter;stroke-miterlimit:4;stroke-dasharray:none;stroke-opacity:1"
       transform="matrix(0.13333333,0,0,-0.13333333,0,290.66667)" />
    <path
       id="path2"
       d="M 44.0195,249.801 0.941406,244.488 27.4609,266.172 c -0.7812,-7.07 5.9375,-13.672 16.5586,-16.371 z"
       style="fill:#000000;fill-opacity:1;fill-rule:evenodd;stroke:#000000;stroke-width:1.9044;stroke-linecap:butt;stroke-linejoin:round;stroke-miterlimit:4;stroke-dasharray:none;stroke-opacity:1"
       transform="matrix(0.13333333,0,0,-0.13333333,0,290.66667)" />
    <path
       id="path3"
       d="M 1222.81,1012.07 2293.32,591.801"
       style="fill:none;stroke:#000000;stroke-width:3.4339;stroke-linecap:butt;stroke-linejoin:miter;stroke-miterlimit:4;stroke-dasharray:none;stroke-opacity:1"
       transform="matrix(0.13333333,0,0,-0.13333333,0,290.66667)" />
    <path
       id="path4"
       d="m 2283.98,604.34 34.03,-17.039 -44.53,-0.071 c 9.37,3.711 12.22,9.329 10.74,16.051 z"
       style="fill:#000000;fill-opacity:1;fill-rule:evenodd;stroke:#000000;stroke-width:1.83981;stroke-linecap:butt;stroke-linejoin:round;stroke-miterlimit:4;stroke-dasharray:none;stroke-opacity:1"
       transform="matrix(0.13333333,0,0,-0.13333333,0,290.66667)" />
    <path
       id="path5"
       d="m 1223.55,1011.45 -0.62,1109.88"
       style="fill:none;stroke:#000000;stroke-width:3.4128;stroke-linecap:butt;stroke-linejoin:miter;stroke-miterlimit:4;stroke-dasharray:none;stroke-opacity:1"
       transform="matrix(0.13333333,0,0,-0.13333333,0,290.66667)" />
    <path
       id="path6"
       d="m 1207.77,2084.84 15.08,41.02 15.08,-41.02 c -8.91,6.57 -21.05,6.53 -30.16,0 z"
       style="fill:#000000;fill-opacity:1;fill-rule:evenodd;stroke:#000000;stroke-width:2.3463;stroke-linecap:butt;stroke-linejoin:round;stroke-miterlimit:4;stroke-dasharray:none;stroke-opacity:1"
       transform="matrix(0.13333333,0,0,-0.13333333,0,290.66667)" />
    <path
       id="path7"
       d="m 1167.5,933.629 -16.02,-53.43"
       style="fill:none;stroke:#000000;stroke-width:3.75;stroke-linecap:butt;stroke-linejoin:miter;stroke-miterlimit:4;stroke-dasharray:none;stroke-opacity:1"
       transform="matrix(0.13333333,0,0,-0.13333333,0,290.66667)" />
    <path
       id="path8"
       d="M 2126.88,1176.05 C 2206.84,934.18 2022.38,503.16 1691.33,201.559 1360.23,-100.039 876.801,-38.1992 560,269.02 139.57,575.121 354.57,843.91 345.59,1151.21 c -8.949,307.27 123.43,394.88 229.609,513.52 153.903,148.12 421.321,213.16 652.461,219.64 140.89,3.99 217.65,-0.31 416.17,-69.21 266.68,-88.68 415.31,-359.22 483.05,-639.11 z"
       style="fill:none;stroke:#000000;stroke-width:8;stroke-linecap:butt;stroke-linejoin:miter;stroke-miterlimit:4;stroke-dasharray:none;stroke-opacity:1"
       transform="matrix(0.13333333,0,0,-0.13333333,0,290.66667)" />
    <path
       id="path9"
       d="m 1236.64,1012.42 c 0,-7.19 -5.86,-13.041 -13.09,-13.08 -7.26,-0.039 -13.2,5.74 -13.28,12.96 -0.07,7.19 5.71,13.09 12.97,13.21 7.27,0.15 13.24,-5.59 13.4,-12.78"
       style="fill:#000000;fill-opacity:1;fill-rule:nonzero;stroke:none"
       transform="matrix(0.13333333,0,0,-0.13333333,0,290.66667)" />
    <path
       id="path10"
       d="m 337.77,1016.8 c -4.649,-154.222 199.531,-358.991 482,-387.698 134.57,-13.711 691.91,-252.653 914.29,38.007 152.11,198.789 283.75,165.352 377.85,288.051 9.46,12.34 30.39,43.82 31.41,66.25"
       style="fill:none;stroke:#000000;stroke-width:6.33669;stroke-linecap:butt;stroke-linejoin:miter;stroke-miterlimit:4;stroke-dasharray:none;stroke-opacity:1"
       transform="matrix(0.13333333,0,0,-0.13333333,0,290.66667)" />
    <path
       id="path11"
       d="m 1223.32,1879.06 c 101.99,-7.97 448.32,-188.12 561.8,-458.86 44.8,-89.3 92.73,-291.61 93.12,-396.18 -4.33,-89.489 -11.83,-81.52 -42.34,-251.68"
       style="fill:none;stroke:#000000;stroke-width:6.8465;stroke-linecap:butt;stroke-linejoin:miter;stroke-miterlimit:4;stroke-dasharray:none;stroke-opacity:1"
       transform="matrix(0.13333333,0,0,-0.13333333,0,290.66667)" />
    <path
       id="path12"
       d="M 1221.88,1879.73 C 1155.51,1875.04 894.691,1777.81 820.699,1693.12 758.16,1621.45 709.57,1557.03 671.879,1437.07 628.09,1301.45 640.469,1219.06 632.07,1044.22 626.91,936.762 648.629,757.461 669.059,661.641"
       style="fill:none;stroke:#000000;stroke-width:7.2145;stroke-linecap:butt;stroke-linejoin:miter;stroke-miterlimit:4;stroke-dasharray:none;stroke-opacity:1"
       transform="matrix(0.13333333,0,0,-0.13333333,0,290.66667)" />
    <path
       id="path13"
       d="m 1224.61,1010.43 c 128.51,-73.09 310.55,-173.442 439.02,-246.52"
       style="fill:none;stroke:#000000;stroke-width:3.75;stroke-linecap:butt;stroke-linejoin:miter;stroke-miterlimit:4;stroke-dasharray:3.75, 3.75;stroke-dashoffset:0;stroke-opacity:1"
       transform="matrix(0.13333333,0,0,-0.13333333,0,290.66667)" />
    <path
       id="path14"
       d="m 1665,763.16 c 0.2,281.06 -0.12,552.54 0.08,833.6"
       style="fill:none;stroke:#000000;stroke-width:3.75;stroke-linecap:butt;stroke-linejoin:miter;stroke-miterlimit:4;stroke-dasharray:3.75, 3.75;stroke-dashoffset:0;stroke-opacity:1"
       transform="matrix(0.13333333,0,0,-0.13333333,0,290.66667)" />
    <path
       id="path15"
       d="m 1139.02,958.359 c 26.76,-22.07 53.13,-43.828 84.22,-44.648 31.14,-0.781 65.16,19.41 99.73,39.879"
       style="fill:none;stroke:#000000;stroke-width:3.765;stroke-linecap:butt;stroke-linejoin:miter;stroke-miterlimit:4;stroke-dasharray:none;stroke-opacity:1"
       transform="matrix(0.13333333,0,0,-0.13333333,0,290.66667)" />
    <path
       id="path16"
       d="m 1222.11,1412.3 c 47.07,18.48 95.35,18.48 129.61,11.84 28.16,-9.69 81.25,-55.19 101.48,-105.19"
       style="fill:none;stroke:#000000;stroke-width:3.75;stroke-linecap:butt;stroke-linejoin:miter;stroke-miterlimit:4;stroke-dasharray:none;stroke-opacity:1"
       transform="matrix(0.13333333,0,0,-0.13333333,0,290.66667)" />
    <path
       id="path19"
       d="M 1665.31,1604.92 C 1518.59,1407.19 1371.84,1209.41 1225.04,1011.6"
       style="fill:none;stroke:#000000;stroke-width:6.55525;stroke-linecap:butt;stroke-linejoin:miter;stroke-miterlimit:4;stroke-dasharray:none;stroke-opacity:1"
       transform="matrix(0.13333333,0,0,-0.13333333,0,290.66667)" />
    <path
       id="path20"
       d="m 1626.52,1554.69 -28.94,-3.95 60.23,44.92 -27.42,-69.88 z"
       style="fill:#000000;fill-opacity:1;fill-rule:evenodd;stroke:none"
       transform="matrix(0.13333333,0,0,-0.13333333,0,290.66667)" />
    <path
       id="path21"
       d="m 1628.36,1556.21 -29.06,-2.77 61.99,42.46 -30.24,-68.79 z"
       style="fill:none;stroke:#000000;stroke-width:5.50629;stroke-linecap:butt;stroke-linejoin:miter;stroke-miterlimit:4;stroke-dasharray:none;stroke-opacity:1"
       transform="matrix(0.13333333,0,0,-0.13333333,0,290.66667)" />
    <path
       id="path27"
       d="m 1227.93,1834.18 c 146.21,-80.2 292.38,-160.35 438.55,-240.59"
       style="fill:none;stroke:#000000;stroke-width:3.75;stroke-linecap:butt;stroke-linejoin:miter;stroke-miterlimit:4;stroke-dasharray:3.75, 3.75;stroke-dashoffset:0;stroke-opacity:1"
       transform="matrix(0.13333333,0,0,-0.13333333,0,290.66667)" />
    <path
       id="path35"
       d="m 1138.63,817.5 c -0.31,-1.41 -0.47,-1.559 -0.47,-2.031 0,-2.188 1.88,-2.809 2.97,-2.809 0.47,0 2.66,0.309 3.6,2.649 0.31,0.781 0.78,4.07 3.59,18.132 0.78,0 1.56,-0.16 3.28,-0.16 16.56,0 31.88,15.629 31.88,31.41 0,7.809 -3.91,13.75 -11.41,13.75 -14.37,0 -20.47,-19.382 -26.41,-38.75 -10.78,2.028 -16.4,7.5 -16.4,14.688 0,2.812 2.34,13.742 8.28,20.621 0.94,0.941 0.94,1.09 0.94,1.41 0,0.309 -0.32,0.93 -1.25,0.93 -2.82,0 -10.47,-14.531 -10.47,-24.059 0,-9.371 6.56,-16.562 17.19,-19.062 z m 13.91,21.559 c -0.94,0 -1.09,0 -1.88,0.16 -1.25,0 -1.25,0 -1.25,0.312 0,0.16 1.72,9.379 1.88,10.778 3.12,12.812 10.94,22.351 19.84,22.351 6.88,0 9.53,-5.32 9.53,-10.16 0,-11.25 -12.81,-23.441 -28.12,-23.441 z"
       style="fill:#000000;fill-opacity:1;fill-rule:nonzero;stroke:none"
       transform="matrix(0.13333333,0,0,-0.13333333,0,290.66667)" />
    <path
       id="path36"
       d="m 2383.01,582.621 c 0.47,1.399 0.47,1.559 0.47,2.34 0,1.719 -1.41,2.66 -2.97,2.66 -0.94,0 -2.5,-0.633 -3.44,-2.031 -0.16,-0.629 -1.09,-3.602 -1.41,-5.469 -0.78,-2.5 -1.4,-5.32 -2.03,-7.973 l -4.53,-17.968 c -0.31,-1.41 -4.69,-8.442 -11.25,-8.442 -5,0 -6.09,4.383 -6.09,8.133 0,4.527 1.72,10.777 5,19.527 1.56,4.063 2.03,5.153 2.03,7.192 0,4.371 -3.13,8.121 -8.13,8.121 -9.53,0 -13.12,-14.531 -13.12,-15.313 0,-1.097 0.94,-1.097 1.09,-1.097 1.1,0 1.1,0.32 1.57,1.879 2.81,9.371 6.71,12.34 10.15,12.34 0.78,0 2.5,0 2.5,-3.122 0,-2.5 -1.09,-5.16 -1.72,-7.027 -4.06,-10.633 -5.78,-16.25 -5.78,-20.941 0,-8.91 6.25,-11.879 12.19,-11.879 3.91,0 7.19,1.719 10,4.539 -1.25,-5.16 -2.5,-10.16 -6.41,-15.469 -2.65,-3.281 -6.4,-6.25 -10.93,-6.25 -1.41,0 -5.94,0.309 -7.66,4.219 1.56,0 2.97,0 4.22,1.25 1.09,0.781 2.03,2.18 2.03,4.058 0,3.122 -2.66,3.442 -3.59,3.442 -2.35,0 -5.63,-1.57 -5.63,-6.41 0,-5 4.38,-8.75 10.63,-8.75 10.15,0 20.46,9.058 23.28,20.308 z"
       style="fill:#000000;fill-opacity:1;fill-rule:nonzero;stroke:none"
       transform="matrix(0.13333333,0,0,-0.13333333,0,290.66667)" />
    <path
       id="path37"
       d="m 44.3789,211.68 c 0.6211,2.5 2.9609,11.718 9.8399,11.718 0.4726,0 2.9726,0 5,-1.25 -2.8086,-0.628 -4.6875,-2.968 -4.6875,-5.468 0,-1.559 1.0898,-3.442 3.75,-3.442 2.1875,0 5.3085,1.723 5.3085,5.782 0,5.16 -5.7812,6.57 -9.2109,6.57 -5.7891,0 -9.2187,-5.32 -10.4687,-7.5 -2.5,6.558 -7.8204,7.5 -10.7891,7.5 -10.3125,0 -16.0898,-12.82 -16.0898,-15.32 0,-1.09 1.0898,-1.09 1.25,-1.09 0.7773,0 1.0976,0.308 1.25,1.09 3.4375,10.628 10,13.128 13.4375,13.128 1.871,0 5.3125,-0.937 5.3125,-6.718 0,-3.129 -1.7227,-9.692 -5.3125,-23.75 -1.5586,-6.09 -5.1602,-10.309 -9.5274,-10.309 -0.6328,0 -2.8203,0 -5,1.25 2.5,0.617 4.6797,2.649 4.6797,5.469 0,2.648 -2.1797,3.43 -3.5898,3.43 -3.1211,0 -5.4727,-2.5 -5.4727,-5.782 0,-4.527 4.8516,-6.558 9.2227,-6.558 6.7187,0 10.3085,7.031 10.4687,7.5 1.25,-3.59 4.8398,-7.5 10.7813,-7.5 10.3085,0 15.9375,12.808 15.9375,15.308 0,1.102 -0.7774,1.102 -1.0899,1.102 -0.9375,0 -1.0976,-0.469 -1.4101,-1.102 -3.2774,-10.777 -10,-13.117 -13.129,-13.117 -3.8984,0 -5.4609,3.117 -5.4609,6.559 0,2.191 0.4609,4.371 1.5625,8.75 z"
       style="fill:#000000;fill-opacity:1;fill-rule:nonzero;stroke:none"
       transform="matrix(0.13333333,0,0,-0.13333333,0,290.66667)" />
    <path
       id="path38"
       d="m 1212.97,2144.22 c 5.31,5.78 8.28,8.28 11.87,11.4 0,0 6.1,5.32 9.69,8.91 9.53,9.22 11.72,14.06 11.72,14.53 0,0.94 -0.94,0.94 -1.09,0.94 -0.78,0 -0.94,-0.16 -1.57,-1.09 -2.97,-4.85 -5,-6.41 -7.34,-6.41 -2.5,0 -3.59,1.56 -5.16,3.28 -1.87,2.19 -3.59,4.22 -6.87,4.22 -7.5,0 -12.03,-9.22 -12.03,-11.41 0,-0.47 0.31,-1.09 1.09,-1.09 0.94,0 1.1,0.47 1.41,1.09 1.87,4.69 7.65,4.69 8.43,4.69 2.04,0 3.91,-0.62 6.26,-1.4 4.06,-1.57 5.15,-1.57 7.65,-1.57 -3.59,-4.22 -11.87,-11.4 -13.75,-12.97 l -9.06,-8.43 c -6.72,-6.72 -10.31,-12.35 -10.31,-13.13 0,-0.94 1.09,-0.94 1.25,-0.94 0.78,0 0.93,0.16 1.56,1.25 2.34,3.6 5.31,6.25 8.59,6.25 2.19,0 3.28,-0.93 5.78,-3.75 1.57,-2.18 3.44,-3.75 6.25,-3.75 10,0 15.78,12.66 15.78,15.32 0,0.46 -0.46,1.09 -1.24,1.09 -0.94,0 -1.1,-0.63 -1.41,-1.41 -2.35,-6.4 -8.75,-8.28 -12.03,-8.28 -1.88,0 -3.75,0.63 -5.78,1.25 -3.44,1.25 -5,1.72 -7.04,1.72 -0.15,0 -1.71,0 -2.65,-0.31 z"
       style="fill:#000000;fill-opacity:1;fill-rule:nonzero;stroke:none"
       transform="matrix(0.13333333,0,0,-0.13333333,0,290.66667)" />
    <path
       id="path42"
       d="m 1573.48,1547.62 c -5.47,-1.1 -6.06,-5.94 -6.06,-6.88 0,-2.19 1.72,-4.69 5,-4.69 3.4,0 7.15,2.82 7.15,7.97 0,4.5 -3.59,8.56 -9.65,8.56 -5.66,0 -10.35,-2.66 -13.24,-5.9 -2.38,4.49 -8.16,5.9 -11.72,5.9 -3.63,0 -6.44,-2.03 -8.63,-5.59 -2.5,-3.9 -3.87,-9.22 -3.87,-9.84 0,-1.41 1.52,-1.41 2.5,-1.41 1.06,0 1.37,0 1.84,0.47 0.31,0.16 0.31,0.47 0.93,2.97 1.88,7.5 4.07,9.8 6.76,9.8 1.53,0 2.31,-0.89 2.31,-3.55 0,-1.72 -0.32,-2.81 -1.41,-7.5 -0.43,-1.72 -2.15,-8.28 -2.81,-10.78 -0.47,-1.88 -1.56,-6.41 -2.03,-8.13 -0.59,-2.65 -1.72,-7.18 -1.72,-7.81 0,-1.99 1.56,-4.33 4.69,-4.33 1.87,0 5.46,1.24 6.56,5.27 0,0.31 6.91,27.34 6.91,27.97 0.47,1.56 0.47,1.72 1.72,3.12 2.27,2.97 5.86,5.74 10.86,5.74 2.5,0 3.59,-1.05 3.91,-1.36 z"
       style="fill:#000000;fill-opacity:1;fill-rule:nonzero;stroke:none"
       transform="matrix(0.13333333,0,0,-0.13333333,0,290.66667)" />
    <path
       id="path43"
       d="m 433.32,1358.4 c 1.25,0.47 4.649,2.65 4.649,4.06 0,0.63 -0.469,0.63 -1.09,0.63 -3.399,0 -13.25,-4.22 -13.25,-14.22 0,-7.19 8.133,-14.49 20.281,-14.49 16.25,0 35.11,11.21 35.11,24.8 0,9.37 -9.961,14.06 -18.079,17.66 -7.031,3.08 -11.562,7.14 -11.562,12.93 0,2.03 0.93,5.93 4.062,8.59 2.969,2.66 8.438,2.97 9.84,2.97 1.098,0 5.309,-0.16 9.688,-2.03 1.832,-0.94 4.332,-2.03 4.332,-6.41 0,-1.41 0,-1.87 -0.313,-2.97 -0.148,-0.31 -0.148,-0.62 -0.148,-0.94 0,-0.78 0.461,-0.78 0.93,-0.78 1.25,0 3.75,1.1 5.628,2.66 1.403,1.09 2.5,2.34 2.5,6.25 0,4.84 -2.66,6.25 -5.308,7.5 -4.692,2.19 -9.34,2.19 -10.59,2.19 -13.121,0 -29.059,-10 -29.059,-21.41 0,-8.24 8.59,-12.3 13.438,-14.34 7.031,-3.28 16.09,-7.81 16.09,-16.25 0,-6.56 -4.848,-15 -20,-15 -10.16,0 -18.239,6.57 -18.239,13.44 0,1.72 0.469,3.6 1.09,5.16 z"
       style="fill:#000000;fill-opacity:1;fill-rule:nonzero;stroke:none"
       transform="matrix(0.13333333,0,0,-0.13333333,0,290.66667)" />
    <path
       id="path44"
       d="m 522.578,1312.66 c 0,0.31 0,0.46 -1.719,2.18 -12.308,12.5 -15.589,31.37 -15.589,46.68 0,17.31 3.75,34.65 16.058,47 1.25,1.25 1.25,1.4 1.25,1.71 0,0.79 -0.308,1.1 -0.937,1.1 -1.09,0 -10,-6.88 -15.903,-19.53 -5,-10.94 -6.25,-22 -6.25,-30.28 0,-7.81 1.102,-19.84 6.563,-31.21 6.058,-12.19 14.5,-18.75 15.59,-18.75 0.629,0 0.937,0.32 0.937,1.1 z"
       style="fill:#000000;fill-opacity:1;fill-rule:nonzero;stroke:none"
       transform="matrix(0.13333333,0,0,-0.13333333,0,290.66667)" />
    <path
       id="path45"
       d="m 548.789,1376.37 h 9.371 c 2.039,0 3.129,0 3.129,2.03 0,1.05 -1.09,1.05 -2.809,1.05 h -8.75 c 3.59,14.22 4.059,16.1 4.059,16.72 0,1.72 -1.25,2.66 -2.969,2.66 -0.308,0 -3.121,0 -3.91,-3.6 l -3.898,-15.78 h -9.34 c -2.031,0 -2.973,0 -2.973,-1.83 0,-1.25 0.781,-1.25 2.821,-1.25 h 8.71 c -7.152,-28.28 -7.621,-30 -7.621,-31.72 0,-5.43 3.75,-9.18 9.18,-9.18 10.16,0 15.781,14.49 15.781,15.27 0,1.1 -0.781,1.1 -1.09,1.1 -0.941,0 -1.101,-0.32 -1.57,-1.41 -4.211,-10.47 -9.531,-12.77 -12.961,-12.77 -2.039,0 -3.129,1.25 -3.129,4.49 0,2.5 0.309,3.12 0.629,4.84 z"
       style="fill:#000000;fill-opacity:1;fill-rule:nonzero;stroke:none"
       transform="matrix(0.13333333,0,0,-0.13333333,0,290.66667)" />
    <path
       id="path46"
       d="m 593.012,1361.52 c 0,7.66 -1.102,19.65 -6.563,31.06 -5.937,12.19 -14.5,18.75 -15.429,18.75 -0.629,0 -1.098,-0.47 -1.098,-1.1 0,-0.31 0,-0.46 1.879,-2.34 9.801,-9.84 15.429,-25.62 15.429,-46.37 0,-17.18 -3.601,-34.64 -15.902,-47.14 -1.406,-1.26 -1.406,-1.41 -1.406,-1.72 0,-0.63 0.469,-1.1 1.098,-1.1 0.929,0 9.96,6.88 15.742,19.53 5.148,10.9 6.25,22 6.25,30.43 z"
       style="fill:#000000;fill-opacity:1;fill-rule:nonzero;stroke:none"
       transform="matrix(0.13333333,0,0,-0.13333333,0,290.66667)" />
    <path
       id="path47"
       d="m 771.09,1169.1 c 23.289,0 56.058,17.81 56.058,44.96 0,8.87 -4.218,14.34 -9.058,17.5 -8.602,5.55 -17.781,5.55 -27.309,5.55 -8.441,0 -14.371,0 -22.812,-3.56 -13.09,-5.93 -15.117,-14.17 -15.117,-14.96 0,-0.66 0.468,-0.78 1.097,-0.78 1.563,0 3.903,1.37 4.68,1.84 2.031,1.44 2.351,2.03 2.973,3.94 1.41,4.03 4.218,7.5 16.679,8.09 -1.562,-20.9 -6.722,-39.96 -13.551,-57.27 -3.75,-1.25 -6.101,-3.59 -6.101,-4.72 0,-0.47 0,-0.59 2.191,-0.59 z m 0.469,5.47 c 11.41,27.77 13.441,45.08 14.851,57.11 6.711,0 32.141,0 32.141,-22.03 0,-19.45 -17.461,-35.08 -41.52,-35.08 z"
       style="fill:#000000;fill-opacity:1;fill-rule:nonzero;stroke:none"
       transform="matrix(0.13333333,0,0,-0.13333333,0,290.66667)" />
    <path
       id="path48"
       d="m 863.32,1145.23 c 0,0.28 0,0.47 -1.718,2.19 -12.34,12.46 -15.622,31.37 -15.622,46.64 0,17.31 3.75,34.69 16.09,46.99 1.25,1.25 1.25,1.41 1.25,1.72 0,0.78 -0.308,1.06 -0.941,1.06 -1.09,0 -10,-6.84 -15.93,-19.45 -5,-10.98 -6.25,-22.04 -6.25,-30.32 0,-7.77 1.09,-19.84 6.563,-31.21 6.09,-12.15 14.527,-18.71 15.617,-18.71 0.633,0 0.941,0.31 0.941,1.09 z"
       style="fill:#000000;fill-opacity:1;fill-rule:nonzero;stroke:none"
       transform="matrix(0.13333333,0,0,-0.13333333,0,290.66667)" />
    <path
       id="path49"
       d="m 889.531,1208.87 h 9.379 c 2.031,0 3.121,0 3.121,2.03 0,1.13 -1.09,1.13 -2.812,1.13 h -8.75 c 3.59,14.22 4.062,16.09 4.062,16.72 0,1.68 -1.25,2.62 -2.972,2.62 -0.309,0 -3.118,0 -3.899,-3.56 l -3.91,-15.78 h -9.34 c -2.031,0 -2.961,0 -2.961,-1.91 0,-1.25 0.781,-1.25 2.813,-1.25 h 8.707 c -7.149,-28.21 -7.617,-29.92 -7.617,-31.68 0,-5.47 3.707,-9.22 9.179,-9.22 10.16,0 15.778,14.53 15.778,15.35 0,1.09 -0.778,1.09 -1.09,1.09 -0.938,0 -1.098,-0.31 -1.559,-1.44 -4.219,-10.47 -9.539,-12.77 -12.969,-12.77 -2.031,0 -3.132,1.25 -3.132,4.49 0,2.5 0.32,3.16 0.632,4.88 z"
       style="fill:#000000;fill-opacity:1;fill-rule:nonzero;stroke:none"
       transform="matrix(0.13333333,0,0,-0.13333333,0,290.66667)" />
    <path
       id="path50"
       d="m 933.75,1194.06 c 0,7.62 -1.09,19.69 -6.559,31.06 -5.941,12.18 -14.531,18.71 -15.472,18.71 -0.629,0 -1.098,-0.47 -1.098,-1.06 0,-0.31 0,-0.47 1.879,-2.34 9.84,-9.81 15.469,-25.59 15.469,-46.37 0,-17.15 -3.59,-34.65 -15.938,-47.11 -1.41,-1.25 -1.41,-1.44 -1.41,-1.72 0,-0.62 0.469,-1.09 1.098,-1.09 0.941,0 10,6.84 15.781,19.49 5.16,10.94 6.25,22.03 6.25,30.43 z"
       style="fill:#000000;fill-opacity:1;fill-rule:nonzero;stroke:none"
       transform="matrix(0.13333333,0,0,-0.13333333,0,290.66667)" />
    <path
       id="path51"
       d="m 1339.1,1494.88 c 0,6.53 -1.72,20.43 -11.87,20.43 -13.87,0 -29.18,-28.08 -29.18,-50.9 0,-9.33 2.81,-20.43 11.87,-20.43 14.06,0 29.18,28.56 29.18,50.9 z m -30.58,-13.59 c 1.71,6.25 3.75,14.22 7.81,21.37 2.65,4.84 6.25,10.46 10.74,10.46 4.84,0 5.47,-6.4 5.47,-12.03 0,-4.96 -0.78,-9.96 -3.13,-19.8 z m 19.96,-3.28 c -1.1,-4.53 -3.13,-12.97 -7,-20.12 -3.43,-6.87 -7.18,-11.72 -11.56,-11.72 -3.28,0 -5.31,2.97 -5.31,12.19 0,4.18 0.62,9.96 3.12,19.65 z"
       style="fill:#000000;fill-opacity:1;fill-rule:nonzero;stroke:none"
       transform="matrix(0.13333333,0,0,-0.13333333,0,290.66667)" />
    <path
       id="path52"
       d="m 630.551,683.012 c -71.41,30.539 -135.082,73.508 -186.922,126.25 -33.899,34.488 -54.25,62.5 -73.508,101.09 -24.812,49.687 -30.672,81.597 -24.141,131.018 1.481,11.13 3.79,65.23 5.071,120.23 2.5,104.85 5.199,132.62 17.699,182.66 9.531,38.04 16.211,56.6 33.711,93.2 18.238,38.28 37.891,68.67 67.148,103.99 34.34,41.44 120.352,130.27 145.7,150.46 102.742,81.84 250.82,140.47 427.421,169.22 57.23,9.34 148.83,18.79 125.59,12.97 -17.77,-4.41 -83.75,-27.65 -118.59,-41.72 -85.628,-34.61 -159.89,-74.37 -203.64,-108.94 -37.11,-29.34 -99.141,-108.75 -129.801,-166.14 -38.828,-72.65 -69.449,-171.64 -78.629,-253.9 -4.5,-40.47 -8.871,-173.28 -9.219,-280.94 -0.351,-102.46 1.68,-134.101 14.758,-233.671 5.121,-39.098 14.653,-98.91 17.742,-111.41 0.821,-3.359 0.43,-6.051 -0.82,-6.051 -1.293,0.043 -14.57,5.313 -29.57,11.684 z M 520.309,1317.58 c -9.289,12.81 -11.047,20.08 -11.09,45.58 0,24.07 0.551,26.8 7.422,36.49 8.238,11.52 4.769,16.99 -3.871,6.09 -12.258,-15.58 -17.11,-37.62 -12.969,-59.41 2.969,-15.63 14.5,-34.81 20.898,-34.81 3.442,0 3.403,0.86 -0.39,6.06 z m 61.453,2.69 c 16.867,22.43 16.437,62.78 -0.942,83.48 -10.55,12.58 -12.422,8.52 -3.441,-7.42 6.41,-11.41 7.461,-16.25 7.461,-34.85 0,-18.59 -1.051,-23.43 -7.418,-34.76 -8.32,-14.77 -8.473,-15.2 -4.883,-15.2 1.41,0 5.551,3.95 9.223,8.75 z m -121.492,16.61 c 11.609,4.84 20.589,14.53 20.589,22.22 0,6.17 -6.371,12.27 -21.371,20.51 -9.648,5.27 -11.09,13.98 -3.008,18.32 7.7,4.1 18.95,0.62 18.95,-5.86 0,-8.44 9.3,-4.96 10.308,3.87 0.672,5.7 -0.66,8.08 -5.859,10.43 -14.488,6.6 -39.609,-5.98 -39.527,-19.77 0.078,-8.48 2.187,-11.01 15.386,-18.32 12.813,-7.11 15.512,-11.6 11.532,-19.1 -3.321,-6.17 -13.52,-9.18 -23.008,-6.8 -8.282,2.07 -11.293,8.6 -7.114,15.28 4.961,7.96 -1.41,8.94 -8.949,1.4 -8.629,-8.63 -8.551,-13.36 0.321,-20.35 8.281,-6.48 19.101,-7.11 31.75,-1.83 z m 90.941,-1.06 c 1.328,0 4.301,3.63 6.598,8.13 5.281,10.11 1.761,10.46 -6.911,0.66 -6.058,-6.84 -6.636,-6.99 -7.269,-2.03 -0.348,2.97 0.941,11.48 2.891,18.9 2.742,10.47 4.89,13.72 9.46,14.38 7.071,1.02 7.969,5.9 1.051,5.9 -3.98,0 -4.652,1.72 -3.711,9.76 1.45,12.43 -5,11.53 -8.672,-1.21 -1.878,-6.48 -3.988,-8.55 -8.828,-8.55 -3.48,0 -6.371,-1.21 -6.371,-2.7 0,-1.48 2.461,-2.73 5.43,-2.73 6.41,0 6.41,0.04 1.332,-18.91 -2.191,-8.16 -3.981,-15.08 -4.02,-15.31 -0.203,-2.89 9.719,-8.95 12.688,-7.77 2.191,0.82 5.043,1.48 6.332,1.48 z m -16.332,87.85 c 0,2.27 3.012,5.28 6.68,6.68 8.91,3.4 11.722,14.73 5.351,21.76 -5.351,5.9 -17.34,6.99 -22.301,2.03 -4.57,-4.53 -4.019,-17.03 0.86,-21.13 2.383,-1.96 3.441,-5.51 2.543,-8.44 -1.102,-3.44 -0.282,-5 2.609,-5 2.348,0 4.258,1.84 4.258,4.1 z"
       style="fill:#ececec;fill-opacity:1;fill-rule:nonzero;stroke:none"
       transform="matrix(0.13333333,0,0,-0.13333333,0,290.66667)" />
    <path
       id="path53"
       d="m 630.551,683.012 c -71.41,30.539 -135.082,73.508 -186.922,126.25 -33.899,34.488 -54.25,62.5 -73.508,101.09 -24.812,49.687 -30.672,81.597 -24.141,131.018 1.481,11.13 3.79,65.23 5.071,120.23 2.5,104.85 5.199,132.62 17.699,182.66 9.531,38.04 16.211,56.6 33.711,93.2 18.238,38.28 37.891,68.67 67.148,103.99 34.34,41.44 120.352,130.27 145.7,150.46 102.742,81.84 250.82,140.47 427.421,169.22 57.23,9.34 148.83,18.79 125.59,12.97 -17.77,-4.41 -83.75,-27.65 -118.59,-41.72 -85.628,-34.61 -159.89,-74.37 -203.64,-108.94 -37.11,-29.34 -99.141,-108.75 -129.801,-166.14 -38.828,-72.65 -69.449,-171.64 -78.629,-253.9 -4.5,-40.47 -8.871,-173.28 -9.219,-280.94 -0.351,-102.46 1.68,-134.101 14.758,-233.671 5.121,-39.098 14.653,-98.91 17.742,-111.41 0.821,-3.359 0.43,-6.051 -0.82,-6.051 -1.293,0.043 -14.57,5.313 -29.57,11.684 z M 520.309,1317.58 c -9.289,12.81 -11.047,20.08 -11.09,45.58 0,24.07 0.551,26.8 7.422,36.49 8.238,11.52 4.769,16.99 -3.871,6.09 -12.258,-15.58 -17.11,-37.62 -12.969,-59.41 2.969,-15.63 14.5,-34.81 20.898,-34.81 3.442,0 3.403,0.86 -0.39,6.06 z m 61.453,2.69 c 16.867,22.43 16.437,62.78 -0.942,83.48 -10.55,12.58 -12.422,8.52 -3.441,-7.42 6.41,-11.41 7.461,-16.25 7.461,-34.85 0,-18.59 -1.051,-23.43 -7.418,-34.76 -8.32,-14.77 -8.473,-15.2 -4.883,-15.2 1.41,0 5.551,3.95 9.223,8.75 z m -121.492,16.6 c 11.609,4.85 20.589,14.54 20.589,22.23 0,6.17 -6.371,12.27 -21.371,20.51 -9.648,5.27 -11.09,13.98 -3.008,18.32 7.7,4.1 18.95,0.62 18.95,-5.86 0,-8.44 9.3,-4.96 10.308,3.87 0.672,5.7 -0.66,8.08 -5.859,10.43 -14.488,6.6 -39.609,-5.98 -39.527,-19.77 0.078,-8.48 2.187,-11.01 15.386,-18.32 12.813,-7.11 15.512,-11.6 11.532,-19.1 -3.321,-6.17 -13.52,-9.18 -23.008,-6.8 -8.282,2.07 -11.293,8.6 -7.114,15.28 4.961,7.96 -1.41,8.94 -8.949,1.4 -8.629,-8.63 -8.551,-13.36 0.321,-20.35 8.281,-6.48 19.101,-7.11 31.75,-1.84 z m 90.941,-1.05 c 1.328,0 4.301,3.63 6.598,8.13 5.281,10.11 1.761,10.46 -6.911,0.66 -6.058,-6.84 -6.636,-6.99 -7.269,-2.03 -0.348,2.97 0.941,11.48 2.891,18.9 2.742,10.47 4.89,13.72 9.46,14.38 7.071,1.01 7.969,5.9 1.051,5.9 -3.98,0 -4.652,1.72 -3.711,9.76 1.45,12.43 -5,11.53 -8.672,-1.21 -1.878,-6.48 -3.988,-8.55 -8.828,-8.55 -3.48,0 -6.371,-1.21 -6.371,-2.7 0,-1.48 2.461,-2.73 5.43,-2.73 6.41,0 6.41,0.04 1.332,-18.91 -2.191,-8.16 -3.981,-15.08 -4.02,-15.31 -0.203,-2.89 9.719,-8.95 12.688,-7.77 2.191,0.82 5.043,1.48 6.332,1.48 z m -16.332,87.85 c 0,2.27 3.012,5.28 6.68,6.68 8.91,3.4 11.722,14.73 5.351,21.76 -5.351,5.9 -17.34,6.99 -22.301,2.03 -4.57,-4.53 -4.019,-17.03 0.86,-21.13 2.383,-1.96 3.441,-5.51 2.543,-8.44 -1.102,-3.44 -0.282,-5 2.609,-5 2.348,0 4.258,1.84 4.258,4.1 z"
       style="fill:none;stroke:#e6e6e6;stroke-width:1.35068;stroke-linecap:butt;stroke-linejoin:miter;stroke-miterlimit:4;stroke-dasharray:none;stroke-opacity:1"
       transform="matrix(0.13333333,0,0,-0.13333333,0,290.66667)" />
    <path
       id="path54"
       d="m 353.16,500.43 c -35.109,68.629 -48.199,126.172 -48.082,211.172 0.121,54.418 3.442,86.367 19.57,187.027 l 11.563,72.031 7.539,-23.199 c 28.441,-87.231 105.199,-173.75 208.98,-235.582 23.598,-14.07 62.7,-33.051 100.79,-48.949 l 6.519,-2.731 -7.891,-4.847 C 647.809,652.66 582.539,611.41 507.109,563.629 431.68,515.859 368.91,476.801 367.621,476.801 c -1.332,0 -7.82,10.621 -14.461,23.629 z"
       style="fill:#ececec;fill-opacity:1;fill-rule:nonzero;stroke:none"
       transform="matrix(0.13333333,0,0,-0.13333333,0,290.66667)" />
    <path
       id="path55"
       d="m 353.16,500.43 c -35.109,68.629 -48.199,126.172 -48.082,211.172 0.121,54.418 3.442,86.367 19.57,187.027 l 11.563,72.031 7.539,-23.199 c 28.441,-87.231 105.199,-173.75 208.98,-235.59 23.598,-14.062 62.7,-33.043 100.79,-48.941 l 6.519,-2.731 -7.891,-4.847 C 647.809,652.66 582.539,611.41 507.109,563.629 431.68,515.859 368.91,476.801 367.621,476.801 c -1.332,0 -7.82,10.621 -14.461,23.629 z"
       style="fill:none;stroke:#e6e6e6;stroke-width:1.35068;stroke-linecap:butt;stroke-linejoin:miter;stroke-miterlimit:4;stroke-dasharray:none;stroke-opacity:1"
       transform="matrix(0.13333333,0,0,-0.13333333,0,290.66667)" />
    <path
       id="path56"
       d="M 1119.73,12.2305 C 925.23,29.4102 734.488,116.09 580.781,257.109 569.648,267.34 547.191,286.02 530.859,298.59 494.18,326.879 432.34,386.68 408.09,417.34 c -20.82,26.289 -35.32,47.148 -35.32,50.75 0,3.39 292.109,188.082 297.152,187.89 2.226,-0.121 19.566,-4.531 38.519,-9.89 18.938,-5.309 50.539,-12.18 70.231,-15.309 71.25,-11.25 83.168,-13.832 174.918,-38.011 51.25,-13.508 116.88,-29.961 145.86,-36.52 287.15,-65.039 484.42,-42.891 602.07,67.621 7.97,7.5 27.27,29.25 42.86,48.359 29.02,35.54 76.75,84.649 88.35,90.86 5.9,3.121 15.9,-0.238 108.68,-36.531 56.21,-21.989 102.54,-40.27 103,-40.579 1.61,-1.14 -33.94,-70.082 -53.55,-103.832 C 1946.76,506.051 1886.48,420.859 1826.56,349.84 1788.87,305.121 1686.13,202.66 1650.55,174.262 1542.5,88.0508 1417.07,34.3008 1281.68,16.1719 1243.01,10.9805 1157.27,8.91016 1119.73,12.2305 Z"
       style="fill:#ececec;fill-opacity:1;fill-rule:nonzero;stroke:none"
       transform="matrix(0.13333333,0,0,-0.13333333,0,290.66667)" />
    <path
       id="path57"
       d="M 1119.73,12.2305 C 925.23,29.4102 734.488,116.09 580.781,257.109 569.648,267.34 547.191,286.02 530.859,298.59 494.18,326.871 432.34,386.68 408.09,417.34 c -20.82,26.289 -35.32,47.148 -35.32,50.75 0,3.39 292.109,188.082 297.152,187.89 2.226,-0.121 19.566,-4.531 38.519,-9.89 18.938,-5.309 50.539,-12.18 70.231,-15.309 71.25,-11.25 83.168,-13.832 174.918,-38.011 51.25,-13.508 116.88,-29.961 145.86,-36.52 287.15,-65.039 484.42,-42.891 602.07,67.621 7.97,7.5 27.27,29.25 42.86,48.359 29.02,35.54 76.75,84.641 88.35,90.86 5.9,3.121 15.9,-0.238 108.68,-36.531 56.21,-21.989 102.54,-40.27 103,-40.579 1.61,-1.14 -33.94,-70.082 -53.55,-103.832 C 1946.76,506.051 1886.48,420.859 1826.56,349.84 1788.87,305.121 1686.13,202.66 1650.55,174.262 1542.5,88.0508 1417.07,34.3008 1281.68,16.1719 1243.01,10.9805 1157.27,8.91016 1119.73,12.2305 Z"
       style="fill:none;stroke:#e6e6e6;stroke-width:1.35068;stroke-linecap:butt;stroke-linejoin:miter;stroke-miterlimit:4;stroke-dasharray:none;stroke-opacity:1"
       transform="matrix(0.13333333,0,0,-0.13333333,0,290.66667)" />
    <path
       id="path59"
       d="m 1946.09,731.52 c -53.63,21.101 -97.97,39.57 -98.51,41.058 -1.96,5.313 53.87,39.57 114.96,70.582 34.18,17.352 72.46,38.211 85.08,46.371 27.26,17.578 59.76,49.219 75.27,73.239 11.13,17.23 11.17,17.269 11.17,8.128 -0.04,-15.277 -15.23,-85.16 -27.07,-124.648 -17.77,-59.301 -55,-153.441 -60.54,-153.238 -1.57,0.078 -46.72,17.379 -100.36,38.508 z"
       style="fill:#ececec;fill-opacity:1;fill-rule:nonzero;stroke:#e6e6e6;stroke-width:1.35068;stroke-linecap:butt;stroke-linejoin:miter;stroke-miterlimit:4;stroke-dasharray:none;stroke-opacity:1"
       transform="matrix(0.13333333,0,0,-0.13333333,0,290.66667)" />
    <path
       id="path64"
       d="m 528.75,1420.9 c -0.59,0.58 -0.629,1.21 -0.16,2.97 1.019,3.83 0.281,6.75 -2.5,9.57 -2.262,2.3 -3.36,4.96 -3.75,9.06 -0.461,4.57 0.672,8.95 2.859,11.13 3.473,3.44 11.129,3.87 17.031,0.94 3.508,-1.72 5.739,-4.34 6.872,-7.93 0.347,-1.02 0.386,-1.56 0.386,-3.44 0,-2.69 -0.226,-3.71 -1.328,-5.93 -1.398,-2.74 -3.781,-4.93 -6.871,-6.22 -2.07,-0.89 -3.59,-1.87 -4.918,-3.2 -1.449,-1.48 -1.961,-2.42 -2.269,-4.22 -0.352,-2.22 -1.481,-3.24 -3.633,-3.24 -1.129,0 -1.25,0.04 -1.719,0.51 z"
       style="fill:#f2f2f2;fill-opacity:1;fill-rule:nonzero;stroke:#f2f2f2;stroke-width:0.0825562;stroke-linecap:butt;stroke-linejoin:miter;stroke-miterlimit:4;stroke-dasharray:none;stroke-opacity:1"
       transform="matrix(0.13333333,0,0,-0.13333333,0,290.66667)" />
    <path
       id="path65"
       d="m 356.129,1265.47 c 0.043,0.35 0.199,1.99 0.351,3.67 0.282,3.13 0.321,3.79 0.899,9.41 2.543,24.42 7.422,48.95 16.141,81.18 2.89,10.62 6.402,21.95 9.531,30.7 0.738,2.15 1.558,4.3 2.148,5.86 0.352,0.86 0.891,2.34 1.25,3.28 1.36,3.59 4.801,11.72 8,18.95 10.352,23.16 21.211,44.29 30.86,60.15 13.75,22.54 27.07,40.94 46.25,63.99 1.882,2.26 3.48,4.18 3.562,4.21 0.039,0.04 0.469,0.55 0.969,1.18 3.051,3.55 12.969,14.84 17.969,20.39 0.351,0.35 1.679,1.83 3.011,3.28 1.328,1.44 3.239,3.55 4.258,4.69 l 1.871,1.99 h 224.379 l -0.308,-0.43 c -0.942,-1.37 -7.149,-12.15 -10.391,-18.13 -7,-12.81 -15.238,-29.8 -21.801,-44.84 -2.578,-5.9 -3.199,-7.46 -6.019,-14.18 -8.59,-20.86 -17.848,-46.8 -25,-70.35 -11.911,-39.1 -20.778,-78.91 -25.539,-114.42 -1.45,-10.66 -1.641,-12.73 -2.821,-26.17 -0.187,-2.18 -0.777,-10.54 -1.09,-15.78 -0.199,-3.05 -0.347,-5.9 -0.39,-6.37 -0.078,-0.43 -0.078,-1.28 -0.117,-1.83 v -1.06 H 356.051 Z m 166.922,45.74 c 1.558,0.9 1.168,2.15 -2.11,6.72 -8.05,11.25 -10.121,17.66 -10.82,33.94 -0.199,4.38 -0.082,25.59 0.149,28.48 0.468,5.78 1.25,9.14 2.89,12.46 0.86,1.68 1.18,2.19 4.77,7.46 2.461,3.64 4.058,7.43 4.058,9.53 0,2.19 -1.476,3.09 -3.547,2.11 -4.613,-2.14 -11.601,-12.14 -15.589,-22.18 -4.493,-11.41 -6.133,-24.14 -4.692,-37.19 0.32,-2.89 1.102,-7.34 1.68,-9.73 2.859,-11.13 10.039,-24.57 15.859,-29.53 2.313,-1.95 3.75,-2.58 5.629,-2.42 0.742,0.04 1.442,0.19 1.723,0.35 z m 51.129,0.24 c 1.129,0.7 5.269,4.76 7.07,7.03 2.5,3.12 4.73,6.72 6.602,10.62 4.648,9.73 7.027,21.02 6.949,33.01 -0.031,5.16 -0.27,8.16 -1.012,12.73 -1.598,10.2 -5.269,19.61 -10.309,26.64 -2.07,2.89 -6.601,7.82 -8.32,9.11 -2.23,1.68 -3.871,1.6 -4.18,-0.2 -0.359,-1.99 1.719,-7.11 5.93,-14.69 4.77,-8.59 6.02,-12.54 6.918,-21.79 0.192,-1.68 0.231,-20.82 0.082,-23.36 -0.59,-9.93 -2.031,-14.53 -7.859,-24.77 -4.02,-7.15 -6.012,-11.05 -6.321,-12.42 -0.242,-0.98 0,-1.84 0.54,-2.15 1.14,-0.59 2.582,-0.51 3.91,0.24 z m -125,21.56 c 4.019,0.54 9.179,2.11 13.359,4.1 8.242,3.91 15.391,10.62 17.93,16.91 3.551,8.79 -1.41,15.32 -19.528,25.59 -1.492,0.86 -3.281,1.99 -3.992,2.54 -6.129,4.61 -6.64,11.09 -1.09,14.57 2.422,1.48 5,2.23 8.012,2.23 3.707,0 7.109,-1.18 9.059,-3.09 1.129,-1.13 1.64,-2.27 1.761,-3.95 0.149,-1.71 0.618,-3.32 1.207,-4.06 1.762,-2.07 4.883,-1.6 7.422,1.1 2.192,2.26 3.2,5.23 3.239,9.25 0,1.8 -0.079,2.31 -0.348,3.17 -0.66,1.87 -1.52,2.93 -3.359,4.18 -3.122,2.11 -7.34,3.28 -11.872,3.28 -5.39,0 -10.71,-1.25 -15.941,-3.79 -3.988,-1.92 -6.988,-3.95 -9.57,-6.52 -4.61,-4.61 -6.289,-8.83 -5.699,-14.54 0.66,-6.68 3.082,-9.21 15.269,-16.13 7.813,-4.41 11.09,-7.07 12.5,-10.12 0.66,-1.44 0.82,-3.36 0.43,-5 -0.391,-1.44 -1.449,-3.63 -2.348,-4.72 -3.082,-3.75 -9.141,-5.94 -15.851,-5.67 -7.579,0.32 -12.661,3.28 -13.641,7.97 -0.43,2.15 0.082,4.18 1.801,7.31 1.64,2.97 1.992,4.53 1.371,5.93 -0.352,0.79 -1.41,1.37 -2.422,1.37 -2.27,0 -5.551,-1.91 -8.867,-5.12 -3.211,-3.08 -5.121,-5.58 -6.293,-8.28 -0.469,-1.13 -0.508,-1.32 -0.508,-3.12 0,-1.56 0.078,-2.03 0.391,-2.78 0.859,-2.07 2.378,-3.98 5.039,-6.25 3.75,-3.2 7.031,-4.96 11.371,-5.97 3.508,-0.86 6.988,-0.98 11.168,-0.39 z m 97.66,1.17 c 0.93,0.31 2.422,0.66 3.32,0.78 1.988,0.31 2.692,0.66 3.899,2.11 1.839,2.11 3.132,4.1 4.769,7.38 2.422,4.85 2.774,7.35 1.094,7.89 -1.602,0.55 -4.371,-1.56 -9.613,-7.3 -2.93,-3.24 -4.368,-4.69 -4.957,-5 -0.313,-0.2 -0.391,-0.16 -0.551,0.23 -0.11,0.2 -0.27,1.1 -0.391,1.96 -0.308,2.42 0.199,6.91 1.371,12.85 1.84,9.14 4.059,15.54 6.168,17.89 1.172,1.25 2.153,1.8 4.262,2.19 2.891,0.58 4.41,1.25 5.391,2.42 0.628,0.7 0.859,1.21 0.859,1.95 0,1.02 -1.133,2.19 -2.461,2.58 -0.309,0.08 -1.48,0.23 -2.539,0.31 -3.242,0.28 -3.633,0.63 -3.711,3.79 -0.039,1.06 0.039,3.01 0.199,4.38 0.582,5.46 0.192,8.39 -1.289,9.8 -0.469,0.47 -0.75,0.59 -1.371,0.63 -2.461,0.23 -5,-3.32 -7.23,-10.2 -1.207,-3.71 -1.911,-5.16 -2.969,-6.37 -1.289,-1.4 -3,-2.03 -5.86,-2.03 -1.402,0 -3.242,-0.39 -4.41,-0.94 -2.379,-1.09 -2.73,-3.2 -0.781,-4.57 1.211,-0.82 2.383,-1.09 5.313,-1.25 2.027,-0.11 2.808,-0.23 3.089,-0.43 1.36,-0.86 0.969,-3.12 -2.972,-17.81 -0.668,-2.46 -2.071,-7.85 -3.481,-13.2 -0.699,-2.62 -0.66,-2.89 0.434,-4.34 1.527,-2.07 5.547,-4.72 8.828,-5.82 1.91,-0.66 3.199,-0.62 5.59,0.12 z m -13.789,85.31 c 1.48,0.82 2.258,2.03 2.5,3.79 0.148,1.25 0.469,1.95 1.211,2.85 1.168,1.41 2.297,2.19 5.148,3.6 4.11,2.03 6.059,3.79 7.578,6.95 3.242,6.56 1.293,14.1 -4.687,18.12 -2.223,1.49 -5.539,2.7 -8.59,3.05 -3.199,0.39 -6.992,-0.15 -9.531,-1.4 -1.52,-0.75 -3.321,-2.47 -4.059,-3.79 -1.172,-2.19 -1.801,-5 -1.801,-8.21 0,-5.19 1.25,-8.83 4.02,-11.75 1.531,-1.61 2.109,-2.62 2.539,-4.15 0.351,-1.32 0.32,-2.38 -0.188,-4.25 -0.589,-2.5 -0.472,-3.48 0.508,-4.5 0.742,-0.74 1.36,-0.89 3.039,-0.82 1.211,0.04 1.563,0.12 2.313,0.51 z"
       style="fill:none;stroke:#f2f2f2;stroke-width:0.0825562;stroke-linecap:butt;stroke-linejoin:miter;stroke-miterlimit:4;stroke-dasharray:none;stroke-opacity:1"
       transform="matrix(0.13333333,0,0,-0.13333333,0,290.66667)" />
    <path
       id="path66"
       d="m 528.871,1420.9 c -0.43,0.39 -0.473,0.55 -0.473,1.44 -0.039,0.59 0.043,1.02 0.082,1.02 0.071,0 0.149,0.16 0.11,0.31 0,0.16 0,0.35 0,0.39 0.039,0.08 0.082,0.2 0.082,0.32 0.039,0.07 0.078,0.15 0.078,0.19 0.121,0.12 0.27,3.2 0.199,3.44 -0.039,0.04 -0.078,0.35 -0.078,0.7 -0.043,0.39 -0.121,0.7 -0.242,0.74 -0.078,0 -0.109,0.16 -0.078,0.28 0.039,0.15 0,0.23 -0.071,0.23 -0.121,0 -0.199,0.08 -0.16,0.16 0.078,0.47 -1.172,2.22 -3.09,4.37 -0.742,0.82 -1.91,3.13 -2.14,4.18 -0.078,0.31 -0.16,0.55 -0.238,0.55 -0.043,0 -0.122,0.35 -0.153,0.78 0,0.43 -0.078,0.82 -0.16,0.82 -0.078,0.04 -0.117,0.35 -0.078,0.7 0.039,0.39 0,0.67 -0.082,0.67 -0.149,0 -0.109,4.22 0.043,4.45 0.039,0.12 0.078,0.35 0.078,0.55 -0.039,0.19 0,0.51 0.078,0.66 0.082,0.16 0.121,0.51 0.152,0.82 0,0.31 0.04,0.59 0.122,0.63 0.039,0.04 0.269,0.62 0.546,1.29 0.551,1.44 1.641,2.93 2.622,3.67 0.429,0.31 0.781,0.58 0.781,0.66 0,0.08 0.039,0.12 0.109,0.12 0.199,-0.08 1.68,0.55 1.68,0.7 0,0.08 0.121,0.12 0.281,0.04 0.109,-0.04 0.231,0 0.231,0.08 0,0.08 0.16,0.12 0.347,0.08 0.16,-0.04 0.321,0 0.321,0.08 0,0.07 0.351,0.15 0.781,0.15 0.39,0.04 0.82,0.12 0.898,0.16 0.231,0.15 4.723,0.15 4.641,0 -0.039,-0.08 0.16,-0.12 0.469,-0.08 0.32,0 0.671,-0.04 0.781,-0.08 0.16,-0.04 0.75,-0.19 1.289,-0.35 2.93,-0.7 5.32,-2.03 7.351,-4.02 1.168,-1.21 1.52,-1.68 2.141,-3.01 0.43,-0.86 0.859,-1.88 0.938,-2.23 0.121,-0.35 0.242,-0.78 0.281,-0.9 0.148,-0.43 0.148,-4.8 0,-4.8 -0.078,0 -0.078,-0.16 -0.039,-0.39 0.039,-0.24 0,-0.43 -0.082,-0.43 -0.117,0 -0.117,-0.16 -0.078,-0.31 0.039,-0.2 0,-0.35 -0.082,-0.35 -0.11,0 -0.149,-0.08 -0.079,-0.24 0.04,-0.12 0.04,-0.23 -0.031,-0.27 -0.078,-0.04 -0.398,-0.63 -0.75,-1.33 -1.129,-2.31 -3.078,-4.42 -5.23,-5.63 -0.348,-0.19 -0.668,-0.43 -0.668,-0.5 0,-0.08 -0.071,-0.08 -0.153,-0.04 -0.16,0.11 -0.976,-0.24 -0.976,-0.43 0,-0.08 -0.082,-0.12 -0.152,-0.12 -0.161,0.04 -1.758,-0.7 -1.801,-0.86 -0.039,-0.08 -0.16,-0.12 -0.239,-0.08 -0.07,0.08 -0.152,0.04 -0.152,-0.08 0,-0.07 -0.078,-0.15 -0.238,-0.15 -0.11,0 -0.231,-0.08 -0.231,-0.16 0,-0.11 -0.121,-0.19 -0.238,-0.19 -0.109,0 -0.269,-0.08 -0.312,-0.24 -0.079,-0.11 -0.188,-0.23 -0.27,-0.23 -0.078,0 -0.59,-0.47 -1.129,-1.02 -0.551,-0.54 -0.98,-0.97 -0.941,-0.97 0.082,0 0,-0.12 -0.117,-0.24 -0.352,-0.39 -0.551,-0.66 -0.582,-0.86 -0.04,-0.08 -0.2,-0.58 -0.391,-1.13 -0.16,-0.55 -0.399,-1.29 -0.469,-1.64 -0.199,-0.78 -0.941,-2.03 -1.25,-2.03 -0.082,0 -0.512,-0.16 -0.898,-0.28 -1.063,-0.43 -2.274,-0.31 -2.891,0.24 z"
       style="fill:#f2f2f2;fill-opacity:1;fill-rule:nonzero;stroke:none"
       transform="matrix(0.13333333,0,0,-0.13333333,0,290.66667)" />
    <path
       id="path67"
       d="m 528.871,1420.9 c -0.43,0.39 -0.473,0.55 -0.473,1.44 -0.039,0.59 0.043,1.02 0.082,1.02 0.071,0 0.149,0.16 0.11,0.31 0,0.16 0,0.35 0,0.39 0.039,0.08 0.082,0.2 0.082,0.31 0.039,0.08 0.078,0.16 0.078,0.2 0.121,0.12 0.27,3.2 0.199,3.44 -0.039,0.04 -0.078,0.35 -0.078,0.7 -0.043,0.39 -0.121,0.7 -0.242,0.74 -0.078,0 -0.109,0.16 -0.078,0.28 0.039,0.15 0,0.23 -0.071,0.23 -0.121,0 -0.199,0.08 -0.16,0.16 0.078,0.47 -1.172,2.22 -3.09,4.37 -0.742,0.82 -1.91,3.13 -2.14,4.18 -0.078,0.31 -0.16,0.55 -0.238,0.55 -0.043,0 -0.122,0.35 -0.153,0.78 0,0.43 -0.078,0.82 -0.16,0.82 -0.078,0.04 -0.117,0.35 -0.078,0.7 0.039,0.39 0,0.67 -0.082,0.67 -0.149,0 -0.109,4.22 0.043,4.45 0.039,0.12 0.078,0.35 0.078,0.55 -0.039,0.19 0,0.51 0.078,0.66 0.082,0.16 0.121,0.51 0.152,0.82 0,0.31 0.04,0.59 0.122,0.63 0.039,0.04 0.269,0.62 0.546,1.29 0.551,1.44 1.641,2.93 2.622,3.67 0.429,0.31 0.781,0.58 0.781,0.66 0,0.08 0.039,0.12 0.109,0.12 0.199,-0.08 1.68,0.55 1.68,0.7 0,0.08 0.121,0.12 0.281,0.04 0.109,-0.04 0.231,0 0.231,0.08 0,0.08 0.16,0.12 0.347,0.08 0.16,-0.04 0.321,0 0.321,0.08 0,0.07 0.351,0.15 0.781,0.15 0.39,0.04 0.82,0.12 0.898,0.16 0.231,0.15 4.723,0.15 4.641,0 -0.039,-0.08 0.16,-0.12 0.469,-0.08 0.32,0 0.671,-0.04 0.781,-0.08 0.16,-0.04 0.75,-0.19 1.289,-0.35 2.93,-0.7 5.32,-2.03 7.351,-4.02 1.168,-1.21 1.52,-1.68 2.141,-3.01 0.43,-0.86 0.859,-1.88 0.938,-2.23 0.121,-0.35 0.242,-0.78 0.281,-0.9 0.148,-0.43 0.148,-4.8 0,-4.8 -0.078,0 -0.078,-0.16 -0.039,-0.39 0.039,-0.24 0,-0.43 -0.082,-0.43 -0.117,0 -0.117,-0.16 -0.078,-0.31 0.039,-0.2 0,-0.36 -0.082,-0.36 -0.11,0 -0.149,-0.07 -0.079,-0.23 0.04,-0.12 0.04,-0.23 -0.031,-0.27 -0.078,-0.04 -0.398,-0.63 -0.75,-1.33 -1.129,-2.31 -3.078,-4.42 -5.23,-5.63 -0.348,-0.19 -0.668,-0.43 -0.668,-0.5 0,-0.08 -0.071,-0.08 -0.153,-0.04 -0.16,0.11 -0.976,-0.24 -0.976,-0.43 0,-0.08 -0.082,-0.12 -0.152,-0.12 -0.161,0.04 -1.758,-0.7 -1.801,-0.86 -0.039,-0.08 -0.16,-0.12 -0.239,-0.08 -0.07,0.08 -0.152,0.04 -0.152,-0.08 0,-0.07 -0.078,-0.15 -0.238,-0.15 -0.11,0 -0.231,-0.08 -0.231,-0.16 0,-0.12 -0.121,-0.19 -0.238,-0.19 -0.109,0 -0.269,-0.08 -0.312,-0.24 -0.079,-0.11 -0.188,-0.23 -0.27,-0.23 -0.078,0 -0.59,-0.47 -1.129,-1.02 -0.551,-0.54 -0.98,-0.97 -0.941,-0.97 0.082,0 0,-0.12 -0.117,-0.24 -0.352,-0.39 -0.551,-0.66 -0.582,-0.86 -0.04,-0.08 -0.2,-0.58 -0.391,-1.13 -0.16,-0.55 -0.399,-1.29 -0.469,-1.64 -0.199,-0.78 -0.941,-2.03 -1.25,-2.03 -0.082,0 -0.512,-0.16 -0.898,-0.28 -1.063,-0.43 -2.274,-0.31 -2.891,0.24 z"
       style="fill:none;stroke:#f2f2f2;stroke-width:0.0825562;stroke-linecap:butt;stroke-linejoin:miter;stroke-miterlimit:4;stroke-dasharray:none;stroke-opacity:1"
       transform="matrix(0.13333333,0,0,-0.13333333,0,290.66667)" />
    <path
       id="path68"
       d="m 528.672,1419.34 c -1.684,0.78 -2.031,2.07 -1.371,4.84 0.469,1.87 0.469,3.59 0,4.96 -0.461,1.33 -0.852,1.95 -2.262,3.48 -2.93,3.24 -4.059,6.4 -4.059,11.4 0,4.85 0.969,8.13 3.04,10.28 1.679,1.68 2.929,2.34 5.55,3 4.102,1.06 8.75,0.55 13.008,-1.4 1.723,-0.78 2.652,-1.45 4.102,-2.81 1.289,-1.25 2.191,-2.5 3.011,-4.18 0.93,-2 1.129,-3.01 1.129,-5.82 -0.039,-2.19 -0.082,-2.62 -0.468,-3.91 -1.051,-3.48 -2.852,-5.94 -5.661,-7.77 -0.511,-0.36 -1.839,-1.06 -2.89,-1.61 -2.539,-1.25 -3.172,-1.68 -4.34,-2.77 -1.25,-1.21 -1.68,-1.99 -1.992,-3.51 -0.117,-0.67 -0.309,-1.45 -0.43,-1.68 -0.309,-0.9 -1.129,-1.76 -2.187,-2.27 -0.864,-0.43 -1.172,-0.51 -2.34,-0.47 -0.782,0 -1.532,0.08 -1.84,0.24 z m 3.359,1.17 c 0.668,0.23 1.598,1.05 1.879,1.6 0.11,0.16 0.231,0.74 0.309,1.25 0.269,1.87 0.742,2.77 2.301,4.3 1.57,1.56 2.699,2.34 4.769,3.2 5.59,2.38 8.711,7.26 8.402,12.97 -0.39,6.95 -5.742,11.83 -14.07,12.73 -2.891,0.32 -5.973,-0.15 -8.281,-1.25 -1.481,-0.7 -2.891,-2.07 -3.629,-3.47 -1.211,-2.31 -1.832,-5.9 -1.52,-9.22 0.348,-3.95 1.438,-6.8 3.469,-8.95 1.531,-1.64 2.192,-2.54 2.738,-3.98 0.551,-1.45 0.551,-3.52 0.043,-5.94 -0.472,-2.07 -0.351,-2.81 0.539,-3.24 0.668,-0.35 2.27,-0.35 3.051,0 z"
       style="fill:#f2f2f2;fill-opacity:1;fill-rule:nonzero;stroke:none"
       transform="matrix(0.13333333,0,0,-0.13333333,0,290.66667)" />
    <path
       id="path69"
       d="m 528.672,1419.34 c -1.684,0.78 -2.031,2.07 -1.371,4.84 0.469,1.87 0.469,3.59 0,4.96 -0.461,1.33 -0.852,1.95 -2.262,3.48 -2.93,3.24 -4.059,6.4 -4.059,11.4 0,4.85 0.969,8.13 3.04,10.28 1.679,1.68 2.929,2.34 5.55,3 4.102,1.06 8.75,0.55 13.008,-1.4 1.723,-0.78 2.652,-1.45 4.102,-2.81 1.289,-1.25 2.191,-2.5 3.011,-4.18 0.93,-2 1.129,-3.01 1.129,-5.82 -0.039,-2.19 -0.082,-2.62 -0.468,-3.91 -1.051,-3.48 -2.852,-5.94 -5.661,-7.77 -0.511,-0.36 -1.839,-1.06 -2.89,-1.61 -2.539,-1.25 -3.172,-1.68 -4.34,-2.77 -1.25,-1.21 -1.68,-1.99 -1.992,-3.51 -0.117,-0.67 -0.309,-1.45 -0.43,-1.68 -0.309,-0.9 -1.129,-1.76 -2.187,-2.27 -0.864,-0.43 -1.172,-0.51 -2.34,-0.47 -0.782,0 -1.532,0.08 -1.84,0.24 z m 3.359,1.17 c 0.668,0.23 1.598,1.05 1.879,1.6 0.11,0.16 0.231,0.74 0.309,1.25 0.269,1.87 0.742,2.77 2.301,4.3 1.57,1.56 2.699,2.34 4.769,3.2 5.59,2.38 8.711,7.26 8.402,12.97 -0.39,6.95 -5.742,11.83 -14.07,12.73 -2.891,0.31 -5.973,-0.15 -8.281,-1.25 -1.481,-0.7 -2.891,-2.07 -3.629,-3.47 -1.211,-2.31 -1.832,-5.9 -1.52,-9.22 0.348,-3.95 1.438,-6.8 3.469,-8.95 1.531,-1.64 2.192,-2.54 2.738,-3.98 0.551,-1.45 0.551,-3.52 0.043,-5.94 -0.472,-2.07 -0.351,-2.81 0.539,-3.24 0.668,-0.35 2.27,-0.35 3.051,0 z"
       style="fill:none;stroke:#f2f2f2;stroke-width:0.0825562;stroke-linecap:butt;stroke-linejoin:miter;stroke-miterlimit:4;stroke-dasharray:none;stroke-opacity:1"
       transform="matrix(0.13333333,0,0,-0.13333333,0,290.66667)" />
    <path
       id="path70"
       d="m 529.262,1419.3 c -0.391,0.08 -1.063,0.5 -1.492,0.97 -0.782,0.82 -0.782,0.9 -0.391,3.79 0.633,4.3 0.351,5.32 -2.34,8.71 -2.34,2.97 -3.238,4.96 -3.711,8.32 -0.777,5.36 0.434,10.67 3.012,13.32 2.07,2.15 5.269,3.21 9.719,3.17 2.89,0 3.711,-0.12 6.101,-0.9 4.41,-1.41 7.539,-4.06 9.328,-7.81 1.024,-2.11 1.102,-2.54 1.102,-5.82 0,-3.17 -0.121,-3.79 -0.942,-5.55 -1.757,-3.75 -3.277,-5.16 -8.519,-7.93 -3.789,-2.03 -4.801,-3.12 -5.899,-6.33 -0.82,-2.5 -0.968,-2.69 -2.378,-3.44 -1.442,-0.7 -2.071,-0.82 -3.59,-0.5 z m 5.187,4.68 c -0.07,0.08 -0.269,-0.11 -0.39,-0.43 -0.188,-0.46 -0.149,-0.5 0.16,-0.19 0.23,0.23 0.351,0.51 0.23,0.62 z m -5.777,1.22 c -0.082,0.27 -0.152,0.19 -0.192,-0.2 0,-0.35 0.071,-0.55 0.192,-0.43 0.117,0.08 0.117,0.39 0,0.63 z m 7.379,1.87 0.937,1.29 -1.047,-1.09 c -0.98,-0.98 -1.293,-1.45 -0.941,-1.45 0.078,0 0.551,0.55 1.051,1.25 z m -7.18,1.8 c -0.082,0.39 -0.242,0.62 -0.32,0.51 -0.192,-0.16 0.121,-1.22 0.359,-1.22 0.07,0 0.07,0.32 -0.039,0.71 z m 9.25,0.04 c 0.629,0.7 0.629,0.7 -0.109,0.23 -0.434,-0.23 -0.782,-0.55 -0.782,-0.7 0,-0.39 0.192,-0.32 0.891,0.47 z m 8.559,5.7 c 0,0.16 -0.039,0.31 -0.16,0.31 -0.071,0 -0.231,-0.15 -0.348,-0.31 -0.121,-0.2 -0.043,-0.35 0.156,-0.35 0.192,0 0.352,0.15 0.352,0.35 z m 1.371,2.19 c 0,0.19 -0.16,0.11 -0.352,-0.16 -0.16,-0.31 -0.32,-0.66 -0.32,-0.86 0,-0.19 0.16,-0.12 0.32,0.16 0.192,0.27 0.352,0.66 0.352,0.86 z m -24.77,1.25 c -0.121,0.27 -0.191,0.19 -0.191,-0.24 -0.039,-0.35 0.031,-0.54 0.148,-0.43 0.121,0.12 0.16,0.39 0.043,0.67 z m 26.25,2.46 c 0.117,0.31 0.039,0.47 -0.152,0.35 -0.16,-0.12 -0.32,-0.35 -0.32,-0.55 0,-0.47 0.242,-0.39 0.472,0.2 z m 0.078,2.77 c -0.078,0.31 -0.16,0.16 -0.16,-0.43 0,-0.55 0.082,-0.82 0.16,-0.58 0.082,0.23 0.121,0.7 0,1.01 z m -3.007,8.17 c -0.192,0.39 -0.473,0.62 -0.551,0.54 -0.153,-0.15 0.59,-1.17 0.859,-1.17 0.078,0 -0.07,0.27 -0.308,0.63 z m -3.282,2.85 c 0,0.08 -0.23,0.23 -0.55,0.35 -0.27,0.12 -0.43,0.04 -0.309,-0.16 0.199,-0.31 0.859,-0.47 0.859,-0.19 z m -7.621,2.22 c -0.109,0.2 -0.621,0.36 -1.09,0.32 l -0.937,-0.04 0.859,-0.28 c 1.207,-0.35 1.41,-0.35 1.168,0 z"
       style="fill:#f2f2f2;fill-opacity:1;fill-rule:nonzero;stroke:none"
       transform="matrix(0.13333333,0,0,-0.13333333,0,290.66667)" />
    <path
       id="path71"
       d="m 529.262,1419.3 c -0.391,0.07 -1.063,0.5 -1.492,0.97 -0.782,0.82 -0.782,0.9 -0.391,3.79 0.633,4.3 0.351,5.31 -2.34,8.71 -2.34,2.97 -3.238,4.96 -3.711,8.32 -0.777,5.36 0.434,10.67 3.012,13.32 2.07,2.15 5.269,3.21 9.719,3.17 2.89,0 3.711,-0.12 6.101,-0.9 4.41,-1.41 7.539,-4.06 9.328,-7.81 1.024,-2.11 1.102,-2.54 1.102,-5.82 0,-3.17 -0.121,-3.79 -0.942,-5.55 -1.757,-3.75 -3.277,-5.16 -8.519,-7.93 -3.789,-2.03 -4.801,-3.12 -5.899,-6.33 -0.82,-2.5 -0.968,-2.69 -2.378,-3.44 -1.442,-0.7 -2.071,-0.82 -3.59,-0.5 z m 5.187,4.68 c -0.07,0.08 -0.269,-0.11 -0.39,-0.43 -0.188,-0.46 -0.149,-0.5 0.16,-0.19 0.23,0.23 0.351,0.51 0.23,0.62 z m -5.777,1.22 c -0.082,0.27 -0.152,0.19 -0.192,-0.2 0,-0.35 0.071,-0.55 0.192,-0.43 0.117,0.08 0.117,0.39 0,0.63 z m 7.379,1.87 0.937,1.29 -1.047,-1.09 c -0.98,-0.98 -1.293,-1.45 -0.941,-1.45 0.078,0 0.551,0.55 1.051,1.25 z m -7.18,1.8 c -0.082,0.39 -0.242,0.62 -0.32,0.5 -0.192,-0.15 0.121,-1.21 0.359,-1.21 0.07,0 0.07,0.32 -0.039,0.71 z m 9.25,0.04 c 0.629,0.7 0.629,0.7 -0.109,0.23 -0.434,-0.23 -0.782,-0.55 -0.782,-0.7 0,-0.39 0.192,-0.32 0.891,0.47 z m 8.559,5.7 c 0,0.16 -0.039,0.31 -0.16,0.31 -0.071,0 -0.231,-0.15 -0.348,-0.31 -0.121,-0.2 -0.043,-0.35 0.156,-0.35 0.192,0 0.352,0.15 0.352,0.35 z m 1.371,2.19 c 0,0.19 -0.16,0.11 -0.352,-0.16 -0.16,-0.31 -0.32,-0.66 -0.32,-0.86 0,-0.19 0.16,-0.12 0.32,0.16 0.192,0.27 0.352,0.66 0.352,0.86 z m -24.77,1.25 c -0.121,0.27 -0.191,0.19 -0.191,-0.24 -0.039,-0.35 0.031,-0.54 0.148,-0.43 0.121,0.12 0.16,0.39 0.043,0.67 z m 26.25,2.46 c 0.117,0.31 0.039,0.47 -0.152,0.35 -0.16,-0.12 -0.32,-0.35 -0.32,-0.55 0,-0.47 0.242,-0.39 0.472,0.2 z m 0.078,2.77 c -0.078,0.31 -0.16,0.16 -0.16,-0.43 0,-0.55 0.082,-0.82 0.16,-0.58 0.082,0.23 0.121,0.7 0,1.01 z m -3.007,8.17 c -0.192,0.39 -0.473,0.62 -0.551,0.54 -0.153,-0.15 0.59,-1.17 0.859,-1.17 0.078,0 -0.07,0.27 -0.308,0.63 z m -3.282,2.85 c 0,0.07 -0.23,0.23 -0.55,0.35 -0.27,0.12 -0.43,0.04 -0.309,-0.16 0.199,-0.31 0.859,-0.47 0.859,-0.19 z m -7.621,2.22 c -0.109,0.2 -0.621,0.35 -1.09,0.32 l -0.937,-0.04 0.859,-0.28 c 1.207,-0.35 1.41,-0.35 1.168,0 z"
       style="fill:none;stroke:#f2f2f2;stroke-width:0.168836;stroke-linecap:butt;stroke-linejoin:miter;stroke-miterlimit:4;stroke-dasharray:none;stroke-opacity:1"
       transform="matrix(0.13333333,0,0,-0.13333333,0,290.66667)" />
    <path
       id="path72"
       d="m 528.359,1419.61 c -1.089,0.59 -1.058,0.31 -1.058,5.55 l -0.031,4.22 -1.329,1.95 c -0.742,1.05 -1.882,2.65 -2.461,3.51 -1.492,2.11 -2.109,4.34 -2.351,7.97 -0.66,9.96 3.711,14.89 13.051,14.81 7.109,-0.04 12.73,-3.24 15.468,-8.79 0.864,-1.76 0.942,-2.23 0.942,-5.78 -0.039,-3.6 -0.121,-4.07 -0.981,-5.9 -1.328,-2.74 -3.828,-5.16 -7.461,-7.15 -3.828,-2.07 -5.976,-4.14 -6.558,-6.25 -0.238,-0.9 -0.711,-2.03 -1.059,-2.58 -1.133,-1.87 -4.179,-2.65 -6.172,-1.56 z"
       style="fill:#f2f2f2;fill-opacity:1;fill-rule:nonzero;stroke:none"
       transform="matrix(0.13333333,0,0,-0.13333333,0,290.66667)" />
    <path
       id="path73"
       d="m 528.359,1419.61 c -1.089,0.59 -1.058,0.31 -1.058,5.55 l -0.031,4.21 -1.329,1.96 c -0.742,1.05 -1.882,2.65 -2.461,3.51 -1.492,2.11 -2.109,4.34 -2.351,7.97 -0.66,9.96 3.711,14.89 13.051,14.81 7.109,-0.04 12.73,-3.25 15.468,-8.79 0.864,-1.76 0.942,-2.23 0.942,-5.78 -0.039,-3.6 -0.121,-4.07 -0.981,-5.9 -1.328,-2.74 -3.828,-5.16 -7.461,-7.15 -3.828,-2.07 -5.976,-4.14 -6.558,-6.25 -0.238,-0.9 -0.711,-2.03 -1.059,-2.58 -1.133,-1.87 -4.179,-2.65 -6.172,-1.56 z"
       style="fill:none;stroke:#f2f2f2;stroke-width:0.168836;stroke-linecap:butt;stroke-linejoin:miter;stroke-miterlimit:4;stroke-dasharray:none;stroke-opacity:1"
       transform="matrix(0.13333333,0,0,-0.13333333,0,290.66667)" />
    <path
       id="path74"
       d="m 528.012,1419.77 c -0.903,0.66 -0.903,0.7 -0.821,5.11 l 0.079,4.5 -1.719,2.38 c -4.071,5.62 -4.692,7.46 -4.422,13.47 0.16,4.61 1.019,7.04 3.172,9.18 1.719,1.76 3.469,2.54 6.64,3.13 7.61,1.29 15.387,-2.19 18.668,-8.44 0.903,-1.76 0.981,-2.07 0.981,-6.05 0,-4.18 -0.039,-4.26 -1.18,-6.37 -1.398,-2.62 -3.512,-4.53 -7.57,-6.95 -3.871,-2.31 -5.36,-3.83 -6.328,-6.45 -0.391,-1.13 -0.981,-2.3 -1.293,-2.66 -1.449,-1.67 -4.649,-2.1 -6.207,-0.85 z"
       style="fill:#ececec;fill-opacity:1;fill-rule:nonzero;stroke:none"
       transform="matrix(0.13333333,0,0,-0.13333333,0,290.66667)" />
    <path
       id="path75"
       d="m 528.012,1419.77 c -0.903,0.66 -0.903,0.7 -0.821,5.11 l 0.079,4.49 -1.719,2.39 c -4.071,5.62 -4.692,7.46 -4.422,13.47 0.16,4.61 1.019,7.04 3.172,9.18 1.719,1.76 3.469,2.54 6.64,3.13 7.61,1.29 15.387,-2.19 18.668,-8.44 0.903,-1.76 0.981,-2.07 0.981,-6.05 0,-4.18 -0.039,-4.26 -1.18,-6.37 -1.398,-2.62 -3.512,-4.53 -7.57,-6.95 -3.871,-2.31 -5.36,-3.83 -6.328,-6.45 -0.391,-1.13 -0.981,-2.3 -1.293,-2.66 -1.449,-1.67 -4.649,-2.1 -6.207,-0.85 z"
       style="fill:none;stroke:#f2f2f2;stroke-width:0.168836;stroke-linecap:butt;stroke-linejoin:miter;stroke-miterlimit:4;stroke-dasharray:none;stroke-opacity:1"
       transform="matrix(0.13333333,0,0,-0.13333333,0,290.66667)" />
    <path
       id="path76"
       d="m 432.34,1357.73 c 1.332,0.51 4.961,2.82 4.961,4.3 0,0.67 -0.5,0.67 -1.172,0.67 -3.629,0 -14.059,-4.46 -14.059,-15.04 0,-7.62 8.629,-15.39 21.52,-15.39 17.191,0 37.191,11.91 37.191,26.28 0,9.93 -10.582,14.89 -19.179,18.68 -7.422,3.32 -12.223,7.61 -12.223,13.75 0,2.14 0.973,6.29 4.293,9.1 3.129,2.81 8.949,3.12 10.43,3.12 1.128,0 5.628,-0.15 10.238,-2.15 1.988,-0.97 4.64,-2.14 4.64,-6.79 0,-1.49 0,-1.96 -0.351,-3.13 -0.149,-0.31 -0.149,-0.66 -0.149,-0.97 0,-0.86 0.5,-0.86 0.969,-0.86 1.332,0 3.992,1.17 5.981,2.81 1.48,1.17 2.621,2.5 2.621,6.64 0,5.12 -2.821,6.6 -5.629,7.93 -4.961,2.3 -9.883,2.3 -11.211,2.3 -13.91,0 -30.781,-10.58 -30.781,-22.65 0,-8.75 9.101,-13.05 14.218,-15.2 7.461,-3.47 17.032,-8.28 17.032,-17.18 0,-6.96 -5.121,-15.9 -21.129,-15.9 -10.781,0 -19.379,6.95 -19.379,14.22 0,1.83 0.508,3.82 1.168,5.46 z"
       style="fill:#000000;fill-opacity:1;fill-rule:nonzero;stroke:none"
       transform="matrix(0.13333333,0,0,-0.13333333,0,290.66667)" />
    <path
       id="path77"
       d="m 523.52,1313.12 c 0,0.32 0,0.47 -1.68,2.19 -12.352,12.5 -15.629,31.37 -15.629,46.68 0,17.35 3.75,34.65 16.09,46.99 1.219,1.25 1.219,1.41 1.219,1.72 0,0.78 -0.321,1.1 -0.899,1.1 -1.101,0 -10,-6.88 -15.941,-19.53 -5,-10.9 -6.25,-22 -6.25,-30.28 0,-7.81 1.09,-19.8 6.558,-31.21 6.102,-12.19 14.532,-18.75 15.633,-18.75 0.578,0 0.899,0.31 0.899,1.09 z"
       style="fill:#000000;fill-opacity:1;fill-rule:nonzero;stroke:none"
       transform="matrix(0.13333333,0,0,-0.13333333,0,290.66667)" />
    <path
       id="path78"
       d="m 549.77,1376.84 h 9.332 c 2.027,0 3.128,0 3.128,2.03 0,1.09 -1.101,1.09 -2.82,1.09 h -8.711 c 3.563,14.18 4.031,16.06 4.031,16.68 0,1.72 -1.25,2.66 -2.929,2.66 -0.321,0 -3.129,0 -3.91,-3.6 l -3.911,-15.74 h -9.371 c -2.031,0 -2.968,0 -2.968,-1.87 0,-1.25 0.781,-1.25 2.808,-1.25 h 8.75 c -7.179,-28.29 -7.648,-30 -7.648,-31.72 0,-5.43 3.75,-9.18 9.219,-9.18 10.109,0 15.742,14.49 15.742,15.27 0,1.09 -0.782,1.09 -1.102,1.09 -0.93,0 -1.09,-0.31 -1.558,-1.4 -4.223,-10.43 -9.493,-12.78 -12.93,-12.78 -2.031,0 -3.121,1.26 -3.121,4.54 0,2.46 0.308,3.08 0.621,4.8 z"
       style="fill:#000000;fill-opacity:1;fill-rule:nonzero;stroke:none"
       transform="matrix(0.13333333,0,0,-0.13333333,0,290.66667)" />
    <path
       id="path79"
       d="m 593.98,1361.99 c 0,7.66 -1.089,19.69 -6.558,31.06 -5.942,12.18 -14.531,18.75 -15.473,18.75 -0.621,0 -1.09,-0.47 -1.09,-1.1 0,-0.31 0,-0.47 1.871,-2.34 9.848,-9.84 15.469,-25.59 15.469,-46.37 0,-17.19 -3.59,-34.65 -15.929,-47.15 -1.411,-1.25 -1.411,-1.4 -1.411,-1.72 0,-0.62 0.469,-1.09 1.09,-1.09 0.942,0 10,6.88 15.781,19.53 5.161,10.94 6.25,21.99 6.25,30.43 z"
       style="fill:#000000;fill-opacity:1;fill-rule:nonzero;stroke:none"
       transform="matrix(0.13333333,0,0,-0.13333333,0,290.66667)" />
    <path
       id="path20-8"
       d="m 191.97082,111.06225 0.84451,-2.40218 1.17726,6.42897 -4.48888,-4.85226 z"
       style="fill:#000000;fill-opacity:1;fill-rule:evenodd;stroke:none;stroke-width:0.088174" />
    <path
       id="path20-8-1"
       d="m 172.92328,165.61737 -2.44632,-0.70652 6.35161,-1.54102 -4.5891,4.7576 z"
       style="fill:#000000;fill-opacity:1;fill-rule:evenodd;stroke:none;stroke-width:0.088174" />
  </g>
</svg>
