<?xml version="1.0" encoding="UTF-8" standalone="no"?>
<!-- Created with Inkscape (http://www.inkscape.org/) -->

<svg
   version="1.1"
   id="svg1"
   width="281.94336"
   height="315.67056"
   viewBox="0 0 281.94336 315.67056"
   sodipodi:docname="Sphere_v2.svg"
   inkscape:version="1.4.2 (ebf0e94, 2025-05-08)"
   xmlns:inkscape="http://www.inkscape.org/namespaces/inkscape"
   xmlns:sodipodi="http://sodipodi.sourceforge.net/DTD/sodipodi-0.dtd"
   xmlns="http://www.w3.org/2000/svg"
   xmlns:svg="http://www.w3.org/2000/svg"
   xmlns:ns1="http://www.iki.fi/pav/software/textext/">
  <sodipodi:namedview
     id="namedview1"
     pagecolor="#ffffff"
     bordercolor="#000000"
     borderopacity="0.25"
     inkscape:showpageshadow="2"
     inkscape:pageopacity="0.0"
     inkscape:pagecheckerboard="0"
     inkscape:deskcolor="#d1d1d1"
     inkscape:zoom="3.05"
     inkscape:cx="137.70492"
     inkscape:cy="165.40984"
     inkscape:window-width="3440"
     inkscape:window-height="1369"
     inkscape:window-x="-8"
     inkscape:window-y="-8"
     inkscape:window-maximized="1"
     inkscape:current-layer="g1"
     showgrid="false">
    <inkscape:page
       x="0"
       y="0"
       inkscape:label="1"
       id="page1"
       width="281.94336"
       height="315.67056"
       margin="0"
       bleed="0" />
  </sodipodi:namedview>
  <defs
     id="defs1">
    <clipPath
       clipPathUnits="userSpaceOnUse"
       id="clipPath15">
      <path
         d="M 0,0 H 212 V 237 H 0 Z"
         id="path15" />
    </clipPath>
    <clipPath
       clipPathUnits="userSpaceOnUse"
       id="clipPath17">
      <path
         d="M 27.344,11.195 H 170.293 V 237 H 27.344 Z"
         transform="scale(1.3333333)"
         id="path17" />
    </clipPath>
    <clipPath
       clipPathUnits="userSpaceOnUse"
       id="clipPath21">
      <path
         d="M 27.344,11.195 H 170.293 V 237 H 27.344 Z"
         id="path21" />
    </clipPath>
    <clipPath
       clipPathUnits="userSpaceOnUse"
       id="clipPath27">
      <path
         d="M 27.344,11.195 H 170.293 V 237 H 27.344 Z"
         id="path27" />
    </clipPath>
    <clipPath
       clipPathUnits="userSpaceOnUse"
       id="clipPath42">
      <path
         d="M 27.344,11.195 H 170.293 V 237 H 27.344 Z"
         transform="scale(1.0318778,1)"
         id="path42" />
    </clipPath>
    <clipPath
       clipPathUnits="userSpaceOnUse"
       id="clipPath44">
      <path
         d="M 27.344,11.195 H 170.293 V 237 H 27.344 Z"
         transform="scale(1.0318778,1)"
         id="path44" />
    </clipPath>
    <clipPath
       clipPathUnits="userSpaceOnUse"
       id="clipPath53">
      <path
         d="M 0,0 H 212 V 237 H 0 Z"
         id="path53" />
    </clipPath>
    <clipPath
       clipPathUnits="userSpaceOnUse"
       id="clipPath55">
      <path
         d="M 0,0 H 212 V 237 H 0 Z"
         id="path55" />
    </clipPath>
  </defs>
  <g
     id="g1"
     inkscape:groupmode="layer"
     inkscape:label="1">
    <g
       id="g16"
       clip-path="url(#clipPath17)">
      <path
         d="m 98.816,60.059 -1.871,0.023 -1.863,0.074 -1.855,0.121 -1.84,0.172 -1.817,0.219 -1.797,0.266 -1.761,0.312 -1.731,0.356 -1.687,0.406 -2.848,0.73 -1.934,0.528 -1.874,0.574 -1.813,0.621 -1.746,0.668 -1.672,0.715 -1.598,0.758 -4.109,2.023 -1.723,0.906 -1.629,0.953 -1.523,0.993 -4.277,3.027 -1.575,1.148 -1.457,1.184 -1.324,1.223 -4.195,3.964 -1.305,1.368 -1.773,2.109 -3.188,3.992 -1.082,1.528 -3.23,5.25 -0.973,1.636 -0.797,1.664 -2.621,5.77 -0.648,1.75 -1.914,6.105 -0.477,1.817 -1.164,6.336 -0.293,1.855 -0.391,6.461 -0.097,1.871 0.097,1.867 0.391,6.461 0.293,1.856 1.164,6.34 0.477,1.812 1.914,6.106 0.648,1.75 2.621,5.769 0.797,1.664 0.973,1.641 3.23,5.246 1.082,1.527 3.801,4.703 1.16,1.399 1.305,1.367 4.195,3.965 1.324,1.222 1.457,1.184 1.575,1.148 4.277,3.028 1.523,0.992 1.629,0.953 1.723,0.906 4.109,2.024 1.598,0.758 1.672,0.711 1.746,0.671 1.813,0.622 1.874,0.574 1.934,0.527 2.848,0.734 1.687,0.403 1.731,0.355 1.761,0.313 1.797,0.265 1.817,0.219 1.84,0.172 1.855,0.121 1.863,0.074 1.871,0.024 1.872,-0.024 1.867,-0.074 1.855,-0.121 1.836,-0.172 1.82,-0.219 1.793,-0.265 1.766,-0.313 1.727,-0.355 1.691,-0.403 2.848,-0.734 1.933,-0.527 1.875,-0.574 1.813,-0.622 1.746,-0.671 1.672,-0.711 1.593,-0.758 4.114,-2.024 1.722,-0.906 1.625,-0.953 1.528,-0.992 4.277,-3.028 1.574,-1.148 1.453,-1.184 1.329,-1.222 4.195,-3.965 1.305,-1.367 1.156,-1.399 3.804,-4.703 1.083,-1.527 3.23,-5.246 0.969,-1.641 0.801,-1.664 2.621,-5.769 0.648,-1.75 1.914,-6.106 0.477,-1.812 1.164,-6.34 0.293,-1.856 0.39,-6.461 0.098,-1.867 -0.098,-1.871 -0.39,-6.461 -0.293,-1.855 -1.164,-6.336 -0.477,-1.817 -1.914,-6.105 -0.648,-1.75 -2.621,-5.77 -0.801,-1.664 -0.969,-1.636 -3.23,-5.25 -1.083,-1.528 -3.804,-4.703 -1.156,-1.398 -1.305,-1.368 -4.195,-3.964 -1.329,-1.223 -1.453,-1.184 -1.574,-1.148 -4.277,-3.027 -1.528,-0.993 -1.625,-0.953 -1.722,-0.906 -4.114,-2.023 -1.593,-0.758 -1.672,-0.715 -1.746,-0.668 -1.813,-0.621 -1.875,-0.574 -1.933,-0.528 -2.848,-0.73 -1.691,-0.406 -1.727,-0.356 -1.766,-0.312 -1.793,-0.266 -1.82,-0.219 -1.836,-0.172 -1.855,-0.121 -1.867,-0.074 z"
         style="fill:#000000;fill-opacity:0.1;fill-rule:nonzero;stroke:#010101;stroke-width:0.75;stroke-linecap:butt;stroke-linejoin:miter;stroke-miterlimit:4;stroke-dasharray:none;stroke-opacity:1"
         transform="scale(1.3333333)"
         clip-path="url(#clipPath15)"
         id="path16" />
    </g>
    <path
       id="path20"
       d="m 98.719,70.09 c 0,0 -16.61,8.719 -31.883,37.324 C 51.562,136.02 52.5,157.691 52.5,157.691 c 0,0 27.215,10.871 56.328,8.391 29.113,-2.477 47.535,-14.926 47.535,-14.926 0,0 -1.332,-26.652 -18.828,-49.941 C 120.035,77.926 102.227,71.301 98.719,70.09 Z"
       style="fill:#ffffff;fill-opacity:1;fill-rule:nonzero;stroke:none"
       transform="scale(1.3333333)"
       clip-path="url(#clipPath21)" />
    <path
       id="path26"
       d="m 152.91,84.926 -1.164,-1.399 -1.305,-1.371 -4.203,-3.976 -1.328,-1.223 -1.461,-1.187 -1.578,-1.149 -4.285,-3.035 -1.531,-0.996 -1.629,-0.953 -1.727,-0.91 -4.121,-2.028 -1.598,-0.758 -1.675,-0.714 -1.75,-0.672 -1.817,-0.625 -1.879,-0.575 -1.937,-0.527 -2.852,-0.734 -1.695,-0.403 -1.73,-0.359 -1.77,-0.312 -1.797,-0.27 -1.824,-0.219 -1.84,-0.168 -1.863,-0.125 -1.867,-0.07 -1.875,-0.027 -1.875,0.027 -1.868,0.07 -1.859,0.125 -1.844,0.168 -1.824,0.219 -1.797,0.27 -1.769,0.312 -1.731,0.359 -1.691,0.403 -2.856,0.734 -1.937,0.527 -1.879,0.575 -1.817,0.625 -1.75,0.672 -1.675,0.714 -1.598,0.758 -4.121,2.028 -1.727,0.91 -1.629,0.953 -1.531,0.996 -4.285,3.035 -1.578,1.149 -1.457,1.187 -1.332,1.223 -4.203,3.976 -1.305,1.371 -1.777,2.114"
       style="fill:none;stroke:#656565;stroke-width:0.75;stroke-linecap:butt;stroke-linejoin:miter;stroke-miterlimit:4;stroke-dasharray:none;stroke-opacity:1"
       transform="scale(1.3333333)"
       clip-path="url(#clipPath27)" />
    <path
       id="path41"
       d="m 101.87,70.152 c -1.02,0.633 -4.144,2.371 -6.111,3.805 -2.039,1.488 -3.99,3.215 -5.897,5 -1.963,1.844 -3.869,3.84 -5.703,5.914 -1.879,2.121 -3.693,4.367 -5.43,6.688 -1.769,2.363 -3.478,4.839 -5.091,7.371 -1.624,2.554 -3.16,5.191 -4.607,7.886 -1.463,2.719 -2.842,5.52 -4.115,8.356 -1.274,2.844 -2.459,5.766 -3.531,8.683 -1.064,2.899 -2.036,5.821 -2.89,8.766 -0.851,2.93 -1.601,5.91 -2.217,8.863 -0.609,2.903 -1.129,5.918 -1.484,8.707 -0.322,2.547 -0.604,4.871 -0.624,7.36"
       style="fill:none;stroke:#000000;stroke-width:0.761863;stroke-linecap:square;stroke-linejoin:miter;stroke-miterlimit:4;stroke-dasharray:none;stroke-opacity:1"
       transform="scale(1.2921427,1.3333333)"
       clip-path="url(#clipPath42)"
       sodipodi:nodetypes="ccccccccccccc" />
    <path
       id="path43"
       d="m 102.095,70.02 c 1.198,0.515 4.809,1.902 7.191,3.097 2.487,1.246 4.995,2.707 7.401,4.258 2.439,1.578 4.821,3.305 7.126,5.137 2.338,1.859 4.624,3.859 6.804,5.953 2.201,2.109 4.325,4.344 6.341,6.664 2.027,2.336 3.966,4.789 5.792,7.305 1.83,2.519 3.567,5.128 5.167,7.796 1.592,2.661 3.064,5.403 4.406,8.18 1.334,2.758 2.555,5.582 3.628,8.426 1.06,2.812 2.003,5.676 2.781,8.539 0.77,2.824 1.427,5.785 1.866,8.527 0.407,2.508 0.706,4.778 0.758,7.27"
       style="fill:none;stroke:#000000;stroke-width:0.761863;stroke-linecap:square;stroke-linejoin:miter;stroke-miterlimit:4;stroke-dasharray:none;stroke-opacity:1"
       transform="scale(1.2921427,1.3333333)"
       clip-path="url(#clipPath44)"
       sodipodi:nodetypes="ccccccccccccc" />
    <path
       id="path47"
       d="m 169.914,125.836 0.059,3.422 -0.051,3.004 -0.422,2.461 -0.625,2.027 -1.023,2.316 -1.239,2.024 -1.551,2.207 -1.832,2.148 -2.097,2.067 -2.309,1.965 -2.484,1.902 -2.809,1.836 -3.019,1.668 -3.223,1.722 -3.379,1.391 -3.492,1.477 -3.773,1.269 -3.813,1.141 -4.105,1.023 -4.039,0.875 -4.29,0.86 -4.238,0.589 -4.406,0.454 -4.461,0.332 -4.438,0.242 -4.515,0.019 -4.516,0.008 -4.449,-0.285 -4.406,-0.395 -4.348,-0.5 -4.293,-0.691 -4.199,-0.773 -4.109,-0.938 -4.012,-1.066 -3.813,-1.207 -3.715,-1.34 -3.519,-1.352 -3.289,-1.554 -3.258,-1.653 -2.953,-1.793 -2.684,-1.847 -2.492,-1.86 -2.238,-1.988 -2.008,-2.09 -1.762,-2.09 -1.465,-2.238 -1.25,-2.266 -0.917,-2.297 -0.688,-2.261 -0.301,-1.895 -0.129,-2.183 0.047,-2.336 0.196,-3.594"
       style="fill:none;stroke:#000000;stroke-width:0.75;stroke-linecap:square;stroke-linejoin:miter;stroke-miterlimit:4;stroke-dasharray:none;stroke-opacity:1"
       transform="scale(1.3333333)" />
    <path
       id="path48"
       d="m 98.633,126.434 -87.223,57.632 -0.312,0.207 0.414,0.625 0.312,-0.207 86.879,-57.41 100.656,44.219 0.344,0.148 0.301,-0.683 -0.344,-0.153 z"
       style="fill:#000000;fill-opacity:1;fill-rule:nonzero;stroke:none"
       transform="scale(1.3333333)" />
    <path
       id="path49"
       d="m 200.172,169.348 3.664,3.711 -6.727,-0.899 c 1.453,-0.695 3.532,-1.265 3.063,-2.812 z"
       style="fill:#000000;fill-opacity:1;fill-rule:evenodd;stroke:none"
       transform="scale(1.3333333)" />
    <path
       id="path50"
       d="m 15.145,184.414 -7.188,2.082 3.906,-4.586 c -0.203,1.598 1.727,2.055 3.282,2.504 z"
       style="fill:#000000;fill-opacity:1;fill-rule:evenodd;stroke:none"
       transform="scale(1.3333333)" />
    <path
       id="path51"
       d="m 131.68266,55.979298 v 7.30265"
       style="fill:none;stroke:#000000;stroke-width:1;stroke-linecap:square;stroke-linejoin:miter;stroke-miterlimit:4;stroke-dasharray:none;stroke-opacity:1" />
    <path
       id="path52"
       d="m 128.88,34.446444 2.80266,-7.697333 2.796,7.697333 c -1.62933,-1.394666 -3.95733,-1.394666 -5.59866,0 z"
       style="fill:#000000;fill-opacity:1;fill-rule:evenodd;stroke:none;stroke-width:1.33333" />
    <g
       opacity="0.426298"
       id="g54"
       transform="matrix(0.78909814,0,0,0.78909814,27.774369,35.542587)"
       style="stroke-width:1.26727">
      <path
         d="m 98.77,126.77 v 96.183"
         style="fill:none;stroke:#000000;stroke-width:0.950452;stroke-linecap:square;stroke-linejoin:miter;stroke-miterlimit:4;stroke-dasharray:2.85136, 2.85136;stroke-dashoffset:0;stroke-opacity:1"
         transform="scale(1.3333333)"
         clip-path="url(#clipPath53)"
         id="path54" />
    </g>
    <g
       opacity="0.89191"
       id="g56"
       transform="translate(0,-26.436782)">
      <path
         d="m 98.793,223.215 v 13.164"
         style="fill:none;stroke:#000000;stroke-width:0.75;stroke-linecap:square;stroke-linejoin:miter;stroke-miterlimit:4;stroke-dasharray:none;stroke-opacity:1"
         transform="scale(1.3333333)"
         clip-path="url(#clipPath55)"
         id="path56" />
    </g>
    <path
       id="path57"
       d="m 131.65599,31.83847 v 137.0823"
       style="fill:none;stroke:#000000;stroke-width:1;stroke-linecap:square;stroke-linejoin:miter;stroke-miterlimit:4;stroke-dasharray:none;stroke-opacity:1" />
    <path
       id="path60"
       d="m 5.977,187.598 c -0.426,0.082 -0.59,0.402 -0.59,0.656 0,0.324 0.258,0.43 0.445,0.43 0.402,0 0.684,-0.348 0.684,-0.711 0,-0.563 -0.645,-0.817 -1.207,-0.817 -0.821,0 -1.274,0.805 -1.395,1.059 -0.309,-1.004 -1.141,-1.059 -1.379,-1.059 -1.367,0 -2.094,1.754 -2.094,2.051 0,0.055 0.055,0.121 0.149,0.121 0.105,0 0.133,-0.082 0.16,-0.133 0.457,-1.488 1.355,-1.769 1.742,-1.769 0.606,0 0.723,0.562 0.723,0.883 0,0.296 -0.078,0.601 -0.238,1.246 l -0.457,1.836 c -0.2,0.804 -0.59,1.543 -1.301,1.543 -0.067,0 -0.403,0 -0.684,-0.176 0.485,-0.094 0.59,-0.496 0.59,-0.656 0,-0.27 -0.199,-0.43 -0.453,-0.43 -0.324,0 -0.672,0.281 -0.672,0.711 0,0.562 0.629,0.816 1.207,0.816 0.645,0 1.098,-0.508 1.379,-1.058 0.215,0.793 0.887,1.058 1.383,1.058 1.367,0 2.09,-1.754 2.09,-2.051 0,-0.066 -0.055,-0.117 -0.133,-0.117 -0.121,0 -0.137,0.067 -0.176,0.172 -0.363,1.18 -1.141,1.731 -1.742,1.731 -0.469,0 -0.723,-0.348 -0.723,-0.899 0,-0.297 0.051,-0.508 0.266,-1.394 l 0.469,-1.825 c 0.203,-0.8 0.656,-1.39 1.273,-1.39 0.027,0 0.402,0 0.684,0.172 z"
       style="fill:#000000;fill-opacity:1;fill-rule:nonzero;stroke:none"
       transform="scale(1.3333333)" />
    <path
       id="path61"
       d="m 208.574,180.223 c -0.359,0.507 -0.883,0.965 -1.539,0.965 -0.16,0 -0.805,-0.028 -1.008,-0.645 0.043,0.016 0.11,0.016 0.137,0.016 0.402,0 0.668,-0.348 0.668,-0.657 0,-0.308 -0.254,-0.418 -0.453,-0.418 -0.215,0 -0.684,0.164 -0.684,0.821 0,0.683 0.575,1.152 1.34,1.152 1.34,0 2.692,-1.234 3.07,-2.723 l 1.313,-5.226 c 0.012,-0.067 0.039,-0.149 0.039,-0.227 0,-0.203 -0.16,-0.336 -0.363,-0.336 -0.117,0 -0.399,0.055 -0.508,0.457 l -0.992,3.938 c -0.067,0.242 -0.067,0.269 -0.172,0.418 -0.27,0.375 -0.711,0.828 -1.356,0.828 -0.75,0 -0.816,-0.734 -0.816,-1.098 0,-0.761 0.359,-1.797 0.723,-2.761 0.148,-0.387 0.226,-0.575 0.226,-0.844 0,-0.563 -0.402,-1.071 -1.058,-1.071 -1.231,0 -1.727,1.942 -1.727,2.051 0,0.051 0.051,0.117 0.145,0.117 0.121,0 0.136,-0.05 0.187,-0.238 0.324,-1.129 0.832,-1.664 1.356,-1.664 0.121,0 0.347,0 0.347,0.442 0,0.351 -0.148,0.738 -0.347,1.25 -0.657,1.753 -0.657,2.195 -0.657,2.519 0,1.273 0.91,1.566 1.582,1.566 0.387,0 0.871,-0.121 1.34,-0.617 l 0.012,0.016 c -0.199,0.789 -0.332,1.312 -0.805,1.969 z"
       style="fill:#000000;fill-opacity:1;fill-rule:nonzero;stroke:none"
       transform="scale(1.3333333)" />
    <path
       id="path62"
       d="m 130.12533,22.412555 c 0.76533,-0.874666 1.39067,-1.426666 2.28667,-2.234666 1.072,-0.926667 1.536,-1.374667 1.78533,-1.64 1.25067,-1.234667 1.876,-2.270667 1.876,-2.417333 0,-0.14 -0.14133,-0.14 -0.17733,-0.14 -0.12534,0 -0.16134,0.07333 -0.25067,0.197333 -0.448,0.766667 -0.87467,1.141333 -1.33867,1.141333 -0.37466,0 -0.572,-0.161333 -0.91066,-0.589333 -0.37467,-0.446667 -0.68267,-0.749333 -1.19867,-0.749333 -1.30667,0 -2.09333,1.625333 -2.09333,2 0,0.05733 0.0213,0.161333 0.18266,0.161333 0.14,0 0.16134,-0.07333 0.21334,-0.197333 0.30266,-0.713334 1.16133,-0.838667 1.5,-0.838667 0.37466,0 0.73466,0.125333 1.10933,0.286667 0.67733,0.285333 0.964,0.285333 1.14133,0.285333 0.124,0 0.19734,0 0.28534,-0.01467 -0.588,0.692 -1.552,1.552 -2.35867,2.286667 l -1.80267,1.661333 c -1.088,1.109333 -1.74933,2.161333 -1.74933,2.286667 0,0.109333 0.088,0.14 0.192,0.14 0.10933,0 0.12533,-0.016 0.25067,-0.229334 0.28666,-0.448 0.85866,-1.109333 1.52,-1.109333 0.376,0 0.552,0.125333 0.912,0.573333 0.33866,0.390667 0.64533,0.765334 1.21333,0.765334 1.756,0 2.756,-2.265334 2.756,-2.677334 0,-0.07333 -0.0213,-0.182666 -0.19867,-0.182666 -0.14,0 -0.16133,0.07333 -0.21333,0.256 -0.396,1.052 -1.448,1.478666 -2.14533,1.478666 -0.376,0 -0.73467,-0.125333 -1.10934,-0.286666 -0.71466,-0.281334 -0.912,-0.281334 -1.14133,-0.281334 -0.18267,0 -0.37467,0 -0.536,0.068 z"
       style="fill:#000000;fill-opacity:1;fill-rule:nonzero;stroke:none;stroke-width:1.33333" />
    <path
       id="path63"
       d="m 118.371,112.355 c -0.363,0.071 -0.551,0.329 -0.551,0.586 0,0.286 0.223,0.379 0.387,0.379 0.328,0 0.598,-0.281 0.598,-0.636 0,-0.375 -0.364,-0.704 -0.95,-0.704 -0.472,0 -1.011,0.211 -1.503,0.926 -0.082,-0.621 -0.555,-0.926 -1.024,-0.926 -0.457,0 -0.691,0.352 -0.832,0.61 -0.203,0.426 -0.379,1.129 -0.379,1.187 0,0.047 0.047,0.106 0.129,0.106 0.094,0 0.106,-0.012 0.176,-0.281 0.18,-0.707 0.402,-1.387 0.871,-1.387 0.281,0 0.363,0.199 0.363,0.539 0,0.262 -0.117,0.719 -0.199,1.082 l -0.328,1.269 c -0.047,0.223 -0.176,0.75 -0.234,0.961 -0.083,0.309 -0.211,0.86 -0.211,0.918 0,0.164 0.128,0.293 0.304,0.293 0.129,0 0.352,-0.082 0.422,-0.316 0.035,-0.094 0.469,-1.867 0.539,-2.137 0.059,-0.262 0.129,-0.508 0.192,-0.765 0.047,-0.164 0.093,-0.352 0.129,-0.504 0.035,-0.106 0.351,-0.684 0.644,-0.942 0.141,-0.129 0.445,-0.398 0.93,-0.398 0.187,0 0.375,0.035 0.527,0.14 z"
       style="fill:#000000;fill-opacity:1;fill-rule:nonzero;stroke:none"
       transform="scale(1.3333333)" />
    <path
       id="path64"
       d="m 104.469,137.93 c 0,-0.086 -0.071,-0.086 -0.098,-0.086 -0.09,0 -0.098,0.019 -0.137,0.183 l -0.523,2.086 c -0.031,0.125 -0.039,0.137 -0.047,0.145 -0.012,0.019 -0.078,0.031 -0.098,0.031 -1.589,0.133 -2.812,1.441 -2.812,2.656 0,1.047 0.805,1.684 1.812,1.743 -0.078,0.3 -0.144,0.613 -0.222,0.914 -0.137,0.511 -0.215,0.832 -0.215,0.871 0,0.019 0,0.078 0.098,0.078 0.031,0 0.07,0 0.089,-0.039 0.02,-0.02 0.075,-0.254 0.114,-0.379 l 0.359,-1.445 c 1.66,-0.086 2.918,-1.442 2.918,-2.665 0,-0.98 -0.734,-1.679 -1.812,-1.746 z m -0.633,2.543 c 0.641,0.039 1.281,0.394 1.281,1.347 0,1.094 -0.765,2.547 -2.277,2.664 z m -1.223,4.023 c -0.472,-0.031 -1.269,-0.281 -1.269,-1.348 0,-1.222 0.883,-2.578 2.281,-2.668 z"
       style="fill:#000000;fill-opacity:1;fill-rule:nonzero;stroke:none"
       transform="scale(1.3333333)" />
    <path
       id="path65"
       d="m 109.176,99.062 c 0,-1.113 -0.352,-2.191 -1.246,-2.191 -1.524,0 -3.149,3.195 -3.149,5.594 0,0.5 0.11,2.191 1.254,2.191 1.481,0 3.141,-3.117 3.141,-5.594 z m -3.305,1.54 c 0.164,-0.645 0.391,-1.563 0.828,-2.336 0.36,-0.653 0.742,-1.176 1.223,-1.176 0.359,0 0.598,0.305 0.598,1.351 0,0.391 -0.032,0.938 -0.348,2.161 z m 2.223,0.324 c -0.27,1.07 -0.5,1.758 -0.895,2.445 -0.312,0.555 -0.695,1.067 -1.152,1.067 -0.34,0 -0.613,-0.262 -0.613,-1.34 0,-0.711 0.175,-1.45 0.351,-2.172 z"
       style="fill:#000000;fill-opacity:1;fill-rule:nonzero;stroke:none"
       transform="scale(1.3333333)" />
    <path
       id="path66"
       d="m 99.082,126.719 22.449,-24.035"
       style="fill:#000000;fill-opacity:1;fill-rule:nonzero;stroke:none"
       transform="scale(1.3333333)" />
    <path
       id="path67"
       d="m 121.512,102.152 -0.254,0.274 -22.449,24.035 -0.258,0.277 0.547,0.508 0.257,-0.273 22.45,-24.035 0.254,-0.274 z"
       style="fill:#000000;fill-opacity:1;fill-rule:nonzero;stroke:none"
       transform="scale(1.3333333)" />
    <path
       id="path68"
       d="m 123.344,100.297 -2.289,5.43 L 119,103.07 Z"
       style="fill:#000000;fill-opacity:1;fill-rule:evenodd;stroke:none"
       transform="scale(1.3333333)" />
    <path
       id="path71"
       d="m 122.973,100.812 v 46.766 L 98.898,126.832"
       style="fill:none;stroke:#000000;stroke-width:0.45;stroke-linecap:square;stroke-linejoin:miter;stroke-miterlimit:4;stroke-dasharray:1.35, 1.35;stroke-dashoffset:0;stroke-opacity:1"
       transform="scale(1.3333333)" />
    <path
       id="path72"
       d="m 108.527,136.246 c -3.117,1.449 -7.398,2.121 -11.632,1.82 -4.231,-0.3 -7.961,-1.539 -10.141,-3.363"
       style="fill:none;stroke:#000000;stroke-width:0.45;stroke-linecap:square;stroke-linejoin:miter;stroke-miterlimit:4;stroke-dasharray:none;stroke-opacity:1"
       transform="scale(1.3333333)" />
    <path
       id="path73"
       d="m 107.016,138.082 -1.879,-1.625 4.429,-0.652 z"
       style="fill:#000000;fill-opacity:1;fill-rule:nonzero;stroke:none"
       transform="scale(1.3333333)" />
    <path
       id="path74"
       d="m 98.984,101.859 c 4.032,0.211 7.61,5.727 9.051,13.961"
       style="fill:none;stroke:#000000;stroke-width:0.449999;stroke-linecap:square;stroke-linejoin:miter;stroke-miterlimit:4;stroke-dasharray:none;stroke-opacity:1"
       transform="scale(1.3333333)" />
    <path
       id="path75"
       d="m 108.387,117.113 -1.754,-3.133 1.84,-1.269 z"
       style="fill:#000000;fill-opacity:1;fill-rule:nonzero;stroke:none"
       transform="scale(1.3333333)" />
    <path
       id="path76"
       d="m 115.156,141.059 c 1.321,-3.414 4.617,-4.977 7.5,-3.555"
       style="fill:none;stroke:#000000;stroke-width:0.45;stroke-linecap:butt;stroke-linejoin:miter;stroke-miterlimit:4;stroke-dasharray:none;stroke-opacity:1"
       transform="scale(1.3333333)" />
    <path
       id="path77"
       d="m 120.602,141.16 c 0.179,0.328 0.121,0.707 -0.129,0.844 -0.254,0.141 -0.606,-0.012 -0.785,-0.34 -0.18,-0.332 -0.122,-0.707 0.132,-0.848 0.25,-0.136 0.602,0.016 0.782,0.344 z"
       style="fill:#000000;fill-opacity:1;fill-rule:nonzero;stroke:none"
       transform="scale(1.3333333)" />
    <g
       id="g3448"
       transform="matrix(1.332,0,0,1.332,65.86041,122.62121)"
       ns1:version="1.12.0"
       ns1:texconverter="pdflatex"
       ns1:pdfconverter="inkscape"
       ns1:text="$\\mathbb{S}$"
       ns1:preamble="C:\Users\akbari\AppData\Roaming\inkscape\extensions\textext\default_packages.tex"
       ns1:scale="0.999"
       ns1:alignment="middle center"
       ns1:inkscapeversion="1.4.2"
       ns1:jacobian_sqrt="1.332">
      <defs
         id="defs4761">
        <g
           id="g3231">
          <g
             id="g4695">
            <path
               d="m 0.71875,-1.046875 h 0.015625 c 0,0 0.140625,0.234375 0.453125,0.53125 -0.15625,0 -0.3125,0.03125 -0.46875,0.109375 z m 1.375,-2 c 0.78125,0.328125 1.828125,0.78125 1.828125,1.703125 0,0.703125 -0.296875,1.109375 -1.296875,1.109375 -0.515625,0 -0.953125,-0.28125 -1.296875,-0.640625 C 0.734375,-1.46875 0.71875,-2 0.71875,-2.21875 0.71875,-2.3125 0.640625,-2.390625 0.546875,-2.390625 0.375,-2.390625 0.375,-2.234375 0.375,-2.0625 v 1.859375 c 0,0.15625 0,0.328125 0.171875,0.328125 0.078125,0 0.09375,-0.03125 0.15625,-0.09375 0.171875,-0.15625 0.34375,-0.1875 0.46875,-0.1875 0.265625,0 0.5,0.09375 0.59375,0.125 C 2.171875,0.125 2.46875,0.125 2.625,0.125 c 1.4375,0 2.65625,-0.734375 2.65625,-2.03125 0,-0.84375 -0.5,-1.75 -1.9375,-2.296875 -0.875,-0.359375 -1.875,-0.75 -1.875,-1.453125 0,-0.546875 0.390625,-1.015625 1.109375,-1.015625 0.71875,0 1.671875,0.75 1.875,1.59375 C 4.46875,-4.9375 4.5,-4.84375 4.640625,-4.84375 4.8125,-4.84375 4.8125,-5 4.8125,-5.171875 V -6.6875 c 0,-0.171875 0,-0.328125 -0.171875,-0.328125 -0.078125,0 -0.125,0.046875 -0.171875,0.078125 C 4.390625,-6.84375 4.25,-6.734375 4,-6.734375 c -0.25,0 -0.484375,-0.078125 -0.59375,-0.125 -0.328125,-0.125 -0.5625,-0.15625 -0.859375,-0.15625 -1.34375,0 -2.25,0.671875 -2.25,1.984375 0,0.65625 0.265625,1.328125 1.796875,1.984375 z m 2.359375,-2.84375 c -0.0625,-0.109375 -0.15625,-0.203125 -0.4375,-0.5 0.265625,-0.015625 0.4375,-0.09375 0.4375,-0.09375 z M 4.125,-0.59375 c 0.140625,-0.28125 0.15625,-0.6875 0.15625,-0.75 0,-1.046875 -1.046875,-1.59375 -1.8125,-1.921875 -0.9375,-0.40625 -1.828125,-0.828125 -1.828125,-1.765625 0,-0.46875 0.125,-1.03125 0.671875,-1.34375 v 0.015625 c -0.171875,0.28125 -0.1875,0.625 -0.1875,0.703125 0,0.90625 1.09375,1.375 2,1.734375 0.359375,0.140625 0.875,0.34375 1.265625,0.734375 0.3125,0.359375 0.546875,0.734375 0.546875,1.28125 0,0.765625 -0.515625,1.15625 -0.8125,1.3125 z m 0,0"
               id="path4057" />
          </g>
        </g>
      </defs>
      <g
         fill="#000000"
         fill-opacity="1"
         id="g1275"
         transform="translate(-149.009,-127.749)">
        <g
           transform="translate(148.712,134.765)"
           id="g617">
          <path
             d="m 0.71875,-1.046875 h 0.015625 c 0,0 0.140625,0.234375 0.453125,0.53125 -0.15625,0 -0.3125,0.03125 -0.46875,0.109375 z m 1.375,-2 c 0.78125,0.328125 1.828125,0.78125 1.828125,1.703125 0,0.703125 -0.296875,1.109375 -1.296875,1.109375 -0.515625,0 -0.953125,-0.28125 -1.296875,-0.640625 C 0.734375,-1.46875 0.71875,-2 0.71875,-2.21875 0.71875,-2.3125 0.640625,-2.390625 0.546875,-2.390625 0.375,-2.390625 0.375,-2.234375 0.375,-2.0625 v 1.859375 c 0,0.15625 0,0.328125 0.171875,0.328125 0.078125,0 0.09375,-0.03125 0.15625,-0.09375 0.171875,-0.15625 0.34375,-0.1875 0.46875,-0.1875 0.265625,0 0.5,0.09375 0.59375,0.125 C 2.171875,0.125 2.46875,0.125 2.625,0.125 c 1.4375,0 2.65625,-0.734375 2.65625,-2.03125 0,-0.84375 -0.5,-1.75 -1.9375,-2.296875 -0.875,-0.359375 -1.875,-0.75 -1.875,-1.453125 0,-0.546875 0.390625,-1.015625 1.109375,-1.015625 0.71875,0 1.671875,0.75 1.875,1.59375 C 4.46875,-4.9375 4.5,-4.84375 4.640625,-4.84375 4.8125,-4.84375 4.8125,-5 4.8125,-5.171875 V -6.6875 c 0,-0.171875 0,-0.328125 -0.171875,-0.328125 -0.078125,0 -0.125,0.046875 -0.171875,0.078125 C 4.390625,-6.84375 4.25,-6.734375 4,-6.734375 c -0.25,0 -0.484375,-0.078125 -0.59375,-0.125 -0.328125,-0.125 -0.5625,-0.15625 -0.859375,-0.15625 -1.34375,0 -2.25,0.671875 -2.25,1.984375 0,0.65625 0.265625,1.328125 1.796875,1.984375 z m 2.359375,-2.84375 c -0.0625,-0.109375 -0.15625,-0.203125 -0.4375,-0.5 0.265625,-0.015625 0.4375,-0.09375 0.4375,-0.09375 z M 4.125,-0.59375 c 0.140625,-0.28125 0.15625,-0.6875 0.15625,-0.75 0,-1.046875 -1.046875,-1.59375 -1.8125,-1.921875 -0.9375,-0.40625 -1.828125,-0.828125 -1.828125,-1.765625 0,-0.46875 0.125,-1.03125 0.671875,-1.34375 v 0.015625 c -0.171875,0.28125 -0.1875,0.625 -0.1875,0.703125 0,0.90625 1.09375,1.375 2,1.734375 0.359375,0.140625 0.875,0.34375 1.265625,0.734375 0.3125,0.359375 0.546875,0.734375 0.546875,1.28125 0,0.765625 -0.515625,1.15625 -0.8125,1.3125 z m 0,0"
             id="path4080" />
        </g>
      </g>
    </g>
  </g>
</svg>
